<svg width="25" height="25" viewBox="0 0 25 25" fill="none" xmlns="http://www.w3.org/2000/svg">
<path d="M15.875 2.08325H11.8188C9.98125 2.08325 8.525 2.08325 7.38646 2.23742C6.21354 2.39575 5.26458 2.72909 4.51667 3.48013C3.76771 4.23117 3.43542 5.18429 3.27813 6.36138C3.125 7.50513 3.125 8.96658 3.125 10.8114V16.8926C3.125 18.4635 4.08333 19.8093 5.44479 20.3739C5.375 19.426 5.375 18.0978 5.375 16.9916V11.7728C5.375 10.4385 5.375 9.28742 5.49792 8.36658C5.63021 7.37908 5.92813 6.43325 6.69271 5.66554C7.45729 4.89784 8.4 4.59888 9.38333 4.46554C10.3 4.34263 11.4458 4.34263 12.776 4.34263H15.974C17.3031 4.34263 18.4469 4.34263 19.3646 4.46554C19.0897 3.76377 18.6097 3.1611 17.9872 2.73615C17.3648 2.3112 16.6287 2.08367 15.875 2.08325Z" fill="#04694F"/>
<path d="M6.875 11.8719C6.875 9.03228 6.875 7.61248 7.75417 6.73019C8.63229 5.8479 10.0458 5.8479 12.875 5.8479H15.875C18.7031 5.8479 20.1177 5.8479 20.9969 6.73019C21.876 7.61248 21.875 9.03228 21.875 11.8719V16.8927C21.875 19.7323 21.875 21.1521 20.9969 22.0344C20.1177 22.9167 18.7031 22.9167 15.875 22.9167H12.875C10.0469 22.9167 8.63229 22.9167 7.75417 22.0344C6.875 21.1521 6.875 19.7323 6.875 16.8927V11.8719Z" fill="#04694F"/>
</svg>
