<svg width="25" height="25" viewBox="0 0 25 25" fill="none" xmlns="http://www.w3.org/2000/svg">
<path d="M17.7085 22.9166C16.8404 22.9166 16.1026 22.6128 15.495 22.0051C14.8873 21.3975 14.5835 20.6596 14.5835 19.7916C14.5835 19.6874 14.6095 19.4444 14.6616 19.0624L7.34391 14.7916C7.06613 15.052 6.74495 15.2562 6.38037 15.4041C6.01579 15.552 5.62516 15.6256 5.2085 15.6249C4.34044 15.6249 3.60259 15.3211 2.99495 14.7135C2.38732 14.1058 2.0835 13.368 2.0835 12.4999C2.0835 11.6319 2.38732 10.894 2.99495 10.2864C3.60259 9.67874 4.34044 9.37492 5.2085 9.37492C5.62516 9.37492 6.01579 9.44888 6.38037 9.59679C6.74495 9.74471 7.06613 9.94853 7.34391 10.2083L14.6616 5.93742C14.6269 5.81589 14.6054 5.69888 14.597 5.58638C14.5887 5.47388 14.5842 5.34784 14.5835 5.20825C14.5835 4.3402 14.8873 3.60235 15.495 2.99471C16.1026 2.38707 16.8404 2.08325 17.7085 2.08325C18.5766 2.08325 19.3144 2.38707 19.922 2.99471C20.5297 3.60235 20.8335 4.3402 20.8335 5.20825C20.8335 6.07631 20.5297 6.81416 19.922 7.42179C19.3144 8.02943 18.5766 8.33325 17.7085 8.33325C17.2918 8.33325 16.9012 8.25929 16.5366 8.11138C16.172 7.96346 15.8509 7.75964 15.5731 7.49992L8.25537 11.7708C8.29009 11.8923 8.31197 12.0096 8.321 12.1228C8.33002 12.236 8.33419 12.3617 8.3335 12.4999C8.3328 12.6381 8.32863 12.7642 8.321 12.878C8.31336 12.9919 8.29148 13.1089 8.25537 13.2291L15.5731 17.4999C15.8509 17.2395 16.172 17.0357 16.5366 16.8885C16.9012 16.7412 17.2918 16.6673 17.7085 16.6666C18.5766 16.6666 19.3144 16.9704 19.922 17.578C20.5297 18.1857 20.8335 18.9235 20.8335 19.7916C20.8335 20.6596 20.5297 21.3975 19.922 22.0051C19.3144 22.6128 18.5766 22.9166 17.7085 22.9166Z" fill="#04694F"/>
</svg>
