<svg width="47" height="50" viewBox="0 0 47 50" fill="none" xmlns="http://www.w3.org/2000/svg">
<path d="M46.4703 31.4084L41.5769 26.8346V20.7756C41.5713 16.5884 39.9049 12.5519 36.8998 9.44656C33.8947 6.34125 29.7644 4.38772 25.3077 3.96374V0.5H21.6923V3.96374C17.2356 4.38772 13.1053 6.34125 10.1002 9.44656C7.09515 12.5519 5.42868 16.5884 5.42308 20.7756V26.8346L0.529654 31.4084C0.190622 31.7252 0.000102383 32.1549 0 32.603V37.6719C0 38.12 0.190453 38.5497 0.529461 38.8666C0.868469 39.1835 1.32826 39.3615 1.80769 39.3615H14.4615V40.6743C14.4214 42.8181 15.2295 44.9002 16.7307 46.5213C18.2319 48.1424 20.3206 49.1884 22.5962 49.4587C23.8528 49.5752 25.1217 49.4445 26.3211 49.0752C27.5205 48.7058 28.6239 48.1058 29.5603 47.3139C30.4968 46.522 31.2455 45.5557 31.7584 44.4771C32.2714 43.3985 32.5371 42.2315 32.5385 41.0511V39.3615H45.1923C45.6717 39.3615 46.1315 39.1835 46.4705 38.8666C46.8095 38.5497 47 38.12 47 37.6719V32.603C46.9999 32.1549 46.8094 31.7252 46.4703 31.4084ZM28.9231 41.0511C28.9231 42.3955 28.3517 43.6848 27.3347 44.6354C26.3177 45.586 24.9383 46.12 23.5 46.12C22.0617 46.12 20.6823 45.586 19.6653 44.6354C18.6483 43.6848 18.0769 42.3955 18.0769 41.0511V39.3615H28.9231V41.0511ZM43.3846 35.9822H3.61538V33.3025L8.50881 28.7286C8.84784 28.4119 9.03836 27.9822 9.03846 27.5341V20.7756C9.03846 17.1906 10.5621 13.7525 13.2741 11.2176C15.9862 8.68263 19.6646 7.25852 23.5 7.25852C27.3354 7.25852 31.0138 8.68263 33.7259 11.2176C36.4379 13.7525 37.9615 17.1906 37.9615 20.7756V27.5341C37.9616 27.9822 38.1522 28.4119 38.4912 28.7286L43.3846 33.3025V35.9822Z" fill="#171414"/>
</svg>
