<svg width="19" height="18" viewBox="0 0 19 18" fill="none" xmlns="http://www.w3.org/2000/svg">
<path d="M9.59232 15.0042L9.50065 15.0958L9.39982 15.0042C5.04565 11.0533 2.16732 8.44083 2.16732 5.79167C2.16732 3.95833 3.54232 2.58333 5.37565 2.58333C6.78732 2.58333 8.16232 3.5 8.64815 4.74667H10.3532C10.839 3.5 12.214 2.58333 13.6257 2.58333C15.459 2.58333 16.834 3.95833 16.834 5.79167C16.834 8.44083 13.9557 11.0533 9.59232 15.0042ZM13.6257 0.75C12.0307 0.75 10.4998 1.4925 9.50065 2.65667C8.50148 1.4925 6.97065 0.75 5.37565 0.75C2.55232 0.75 0.333984 2.95917 0.333984 5.79167C0.333984 9.2475 3.45065 12.08 8.17148 16.3608L9.50065 17.5708L10.8298 16.3608C15.5507 12.08 18.6673 9.2475 18.6673 5.79167C18.6673 2.95917 16.449 0.75 13.6257 0.75Z" fill="black"/>
</svg>
