<svg width="18" height="19" viewBox="0 0 18 19" fill="none" xmlns="http://www.w3.org/2000/svg">
<path fill-rule="evenodd" clip-rule="evenodd" d="M14.6564 9.5L13.2424 8.086L15.3634 5.964C15.5544 5.77951 15.7068 5.55882 15.8116 5.31481C15.9164 5.0708 15.9716 4.80836 15.9739 4.54281C15.9762 4.27725 15.9256 4.01389 15.825 3.7681C15.7245 3.5223 15.576 3.299 15.3882 3.11121C15.2004 2.92343 14.9771 2.77492 14.7313 2.67436C14.4855 2.5738 14.2221 2.52319 13.9566 2.5255C13.691 2.52781 13.4286 2.58298 13.1846 2.6878C12.9406 2.79262 12.7199 2.94498 12.5354 3.136L8.29239 7.379C7.91744 7.75406 7.70681 8.26267 7.70681 8.793C7.70681 9.32333 7.91744 9.83195 8.29239 10.207L6.87838 11.621C6.50693 11.2496 6.21227 10.8086 6.01124 10.3233C5.81021 9.83797 5.70674 9.31781 5.70674 8.7925C5.70674 8.2672 5.81021 7.74704 6.01124 7.26172C6.21227 6.77641 6.50693 6.33544 6.87838 5.964L11.1204 1.722C11.8705 0.971838 12.888 0.5504 13.9489 0.5504C14.4742 0.5504 14.9943 0.653866 15.4797 0.85489C15.965 1.05591 16.4059 1.35056 16.7774 1.722C17.1488 2.09345 17.4435 2.53441 17.6445 3.01973C17.8455 3.50504 17.949 4.0252 17.949 4.5505C17.949 5.0758 17.8455 5.59596 17.6445 6.08128C17.4435 6.56659 17.1488 7.00756 16.7774 7.379L14.6564 9.5ZM3.34238 9.5L4.75638 10.914L2.63538 13.036C2.44436 13.2205 2.292 13.4412 2.18718 13.6852C2.08236 13.9292 2.02719 14.1916 2.02488 14.4572C2.02258 14.7228 2.07318 14.9861 2.17374 15.2319C2.2743 15.4777 2.42281 15.701 2.61059 15.8888C2.79838 16.0766 3.02168 16.2251 3.26748 16.3256C3.51327 16.4262 3.77663 16.4768 4.04219 16.4745C4.30775 16.4722 4.57019 16.417 4.81419 16.3122C5.0582 16.2074 5.27889 16.055 5.46338 15.864L9.70638 11.621C10.0813 11.2459 10.292 10.7373 10.292 10.207C10.292 9.67667 10.0813 9.16806 9.70638 8.793L11.1204 7.379C11.4918 7.75044 11.7865 8.19141 11.9875 8.67672C12.1886 9.16204 12.292 9.6822 12.292 10.2075C12.292 10.7328 12.1886 11.253 11.9875 11.7383C11.7865 12.2236 11.4918 12.6646 11.1204 13.036L6.87938 17.278C6.50794 17.6494 6.06697 17.9441 5.58166 18.1451C5.09634 18.3461 4.57619 18.4496 4.05088 18.4496C3.52558 18.4496 3.00543 18.3461 2.52011 18.1451C2.0348 17.9441 1.59383 17.6494 1.22238 17.278C0.47222 16.5278 0.0507813 15.5104 0.0507812 14.4495C0.0507812 13.3886 0.47222 12.3712 1.22238 11.621L3.34238 9.5Z" fill="black"/>
</svg>
