<svg width="33" height="33" viewBox="0 0 33 33" fill="none" xmlns="http://www.w3.org/2000/svg">
<path d="M16.5 2.0625L4.125 6.1875V18.5625C4.125 25.3978 9.66475 30.9375 16.5 30.9375C23.3353 30.9375 28.875 25.3978 28.875 18.5625V6.1875L16.5 2.0625ZM26.5547 18.5625C26.5547 24.1151 22.0526 28.6172 16.5 28.6172C10.9474 28.6172 6.44531 24.1151 6.44531 18.5625V7.92773L16.5 4.38281L26.5547 7.92773V18.5625Z" fill="black" fill-opacity="0.6"/>
<path d="M12.1945 15.3108C12.087 15.2028 11.9592 15.1171 11.8184 15.0586C11.6777 15.0001 11.5268 14.97 11.3744 14.97C11.2219 14.97 11.071 15.0001 10.9303 15.0586C10.7895 15.1171 10.6617 15.2028 10.5542 15.3108C10.4462 15.4184 10.3605 15.5462 10.302 15.6869C10.2435 15.8277 10.2134 15.9786 10.2134 16.131C10.2134 16.2834 10.2435 16.4343 10.302 16.5751C10.3605 16.7158 10.4462 16.8436 10.5542 16.9512L14.7243 21.1213L14.792 21.189C14.8937 21.2909 15.0145 21.3717 15.1475 21.4269C15.2805 21.482 15.4231 21.5104 15.567 21.5104C15.711 21.5104 15.8536 21.482 15.9866 21.4269C16.1196 21.3717 16.2404 21.2909 16.3421 21.189L23.5447 13.9863C23.6466 13.8846 23.7275 13.7638 23.7826 13.6308C23.8378 13.4978 23.8662 13.3553 23.8662 13.2113C23.8662 13.0673 23.8378 12.9247 23.7826 12.7917C23.7275 12.6588 23.6466 12.5379 23.5447 12.4362L23.4545 12.346C23.3528 12.2441 23.232 12.1632 23.099 12.1081C22.966 12.0529 22.8234 12.0245 22.6794 12.0245C22.5355 12.0245 22.3929 12.0529 22.2599 12.1081C22.1269 12.1632 22.0061 12.2441 21.9044 12.346L15.5654 18.6817L12.1945 15.3108Z" fill="black" fill-opacity="0.6"/>
</svg>
