<svg width="18" height="17" viewBox="0 0 18 17" fill="none" xmlns="http://www.w3.org/2000/svg">
<path d="M8.52441 1.58203C8.67409 1.12138 9.32591 1.12137 9.47559 1.58203L10.7695 5.56445C10.9704 6.18244 11.5465 6.60059 12.1963 6.60059H16.3838C16.8681 6.60059 17.0694 7.22013 16.6777 7.50488L13.29 9.9668C12.7644 10.3487 12.5444 11.0256 12.7451 11.6436L14.0391 15.627C14.1884 16.0875 13.6613 16.4702 13.2695 16.1855L9.88184 13.7246C9.3561 13.3426 8.64389 13.3426 8.11816 13.7246L4.73047 16.1855C4.33869 16.4702 3.81157 16.0875 3.96094 15.627L5.25488 11.6436C5.45556 11.0256 5.23562 10.3487 4.70996 9.9668L1.32227 7.50488C0.930604 7.22014 1.13191 6.60059 1.61621 6.60059H5.80371C6.45352 6.60059 7.02963 6.18244 7.23047 5.56445L8.52441 1.58203Z" stroke="#04694F"/>
</svg>
