<svg width="372" height="313" viewBox="0 0 372 313" fill="none" xmlns="http://www.w3.org/2000/svg">
<path d="M371.473 169.002C371.473 124.181 351.92 81.195 317.115 49.5014C282.31 17.8078 235.105 0.00244479 185.884 0.00244141C136.663 0.00243802 89.4574 17.8077 54.6527 49.5014C19.848 81.195 0.294929 124.181 0.294922 169.002L29.6342 169.002C29.6342 131.267 46.0961 95.0763 75.3987 68.393C104.701 41.7097 144.444 26.7192 185.884 26.7192C227.324 26.7192 267.067 41.7097 296.369 68.393C325.672 95.0763 342.134 131.267 342.134 169.002H371.473Z" fill="white"/>
<path d="M371.473 169.002C371.473 141.255 363.97 113.935 349.627 89.4535L323.742 102.029C335.817 122.64 342.134 145.642 342.134 169.002H371.473Z" fill="#009770"/>
<path d="M343.923 80.4014C327.948 56.7731 305.83 37.09 279.522 23.0903L264.719 46.1571C286.868 57.9437 305.49 74.5151 318.939 94.4081L343.923 80.4014Z" fill="#04694F"/>
<path d="M175.722 0.255945C145.297 1.77517 115.751 10.0928 89.6922 24.4744L104.899 47.3224C126.838 35.2144 151.713 28.2117 177.329 26.9326L175.722 0.255945Z" fill="#04694F"/>
<path d="M82.7342 28.5096C57.4031 43.9315 36.6317 64.7957 22.254 89.2599L48.1218 101.866C60.2265 81.2694 77.7143 63.7036 99.0408 50.7197L82.7342 28.5096Z" fill="#04694F"/>
<path d="M18.2574 96.4691C5.17954 121.531 -0.920664 149.139 0.495453 176.857L29.803 175.615C28.6107 152.279 33.7466 129.035 44.757 107.936L18.2574 96.4691Z" fill="#B61200"/>
<path d="M272.809 19.6861C245.887 6.68987 215.866 -0.0701117 185.395 0.00302853L185.472 26.7197C211.126 26.6581 236.402 32.3494 259.068 43.2911L272.809 19.6861Z" fill="#04694F"/>
</svg>
