<svg width="399" height="313" viewBox="0 0 399 313" fill="none" xmlns="http://www.w3.org/2000/svg">
<path d="M241.888 56.1255L208.139 166.613L184.886 156.611L241.888 56.1255Z" fill="#04694F"/>
<path d="M379.473 169.002C379.473 124.181 359.92 81.195 325.115 49.5014C290.31 17.8078 243.105 0.00244479 193.884 0.00244141C144.663 0.00243802 97.4574 17.8077 62.6527 49.5014C27.848 81.195 8.29493 124.181 8.29492 169.002L37.6342 169.002C37.6342 131.267 54.0961 95.0763 83.3987 68.393C112.701 41.7097 152.444 26.7192 193.884 26.7192C235.324 26.7192 275.067 41.7097 304.369 68.393C333.672 95.0763 350.134 131.267 350.134 169.002H379.473Z" fill="white"/>
<path d="M379.473 169.002C379.473 141.255 371.97 113.935 357.627 89.4535L331.742 102.029C343.817 122.64 350.134 145.642 350.134 169.002H379.473Z" fill="#009770"/>
<path d="M351.923 80.4014C335.948 56.7731 313.83 37.09 287.522 23.0903L272.719 46.1571C294.868 57.9437 313.49 74.5151 326.939 94.4081L351.923 80.4014Z" fill="#04694F"/>
<path d="M183.722 0.255945C153.297 1.77517 123.751 10.0928 97.6922 24.4744L112.899 47.3224C134.838 35.2144 159.713 28.2117 185.329 26.9326L183.722 0.255945Z" fill="#04694F"/>
<path d="M90.7342 28.5096C65.4031 43.9315 44.6317 64.7957 30.254 89.2599L56.1218 101.866C68.2265 81.2694 85.7143 63.7036 107.041 50.7197L90.7342 28.5096Z" fill="#04694F"/>
<path d="M26.2574 96.4691C13.1795 121.531 7.07934 149.139 8.49545 176.857L37.803 175.615C36.6107 152.279 41.7466 129.035 52.757 107.936L26.2574 96.4691Z" fill="#B61200"/>
<path d="M280.809 19.6861C253.887 6.68987 223.866 -0.0701117 193.395 0.00302853L193.472 26.7197C219.126 26.6581 244.402 32.3494 267.068 43.2911L280.809 19.6861Z" fill="#04694F"/>
<path d="M1.43466 212.886V198.341H4.0696V210.677H10.4759V212.886H1.43466ZM17.4077 213.099C16.3423 213.099 15.419 212.865 14.6378 212.396C13.8565 211.927 13.2505 211.271 12.8196 210.429C12.3935 209.586 12.1804 208.601 12.1804 207.474C12.1804 206.347 12.3935 205.36 12.8196 204.512C13.2505 203.665 13.8565 203.007 14.6378 202.538C15.419 202.069 16.3423 201.835 17.4077 201.835C18.473 201.835 19.3963 202.069 20.1776 202.538C20.9588 203.007 21.5625 203.665 21.9886 204.512C22.4195 205.36 22.6349 206.347 22.6349 207.474C22.6349 208.601 22.4195 209.586 21.9886 210.429C21.5625 211.271 20.9588 211.927 20.1776 212.396C19.3963 212.865 18.473 213.099 17.4077 213.099ZM17.4219 211.039C17.9995 211.039 18.4825 210.881 18.8707 210.564C19.259 210.242 19.5478 209.811 19.7372 209.271C19.9313 208.731 20.0284 208.13 20.0284 207.467C20.0284 206.799 19.9313 206.196 19.7372 205.656C19.5478 205.111 19.259 204.678 18.8707 204.356C18.4825 204.034 17.9995 203.873 17.4219 203.873C16.83 203.873 16.3376 204.034 15.9446 204.356C15.5563 204.678 15.2652 205.111 15.071 205.656C14.8816 206.196 14.7869 206.799 14.7869 207.467C14.7869 208.13 14.8816 208.731 15.071 209.271C15.2652 209.811 15.5563 210.242 15.9446 210.564C16.3376 210.881 16.83 211.039 17.4219 211.039ZM26.756 212.886L23.6737 201.977H26.2944L28.212 209.647H28.3114L30.2717 201.977H32.864L34.8242 209.605H34.9308L36.82 201.977H39.4478L36.3583 212.886H33.6808L31.6353 205.514H31.4862L29.4407 212.886H26.756Z" fill="black"/>
<path d="M337.36 212.886V198.34H339.995V204.498H346.735V198.34H349.377V212.886H346.735V206.707H339.995V212.886H337.36ZM352.13 212.886V201.977H354.701V212.886H352.13ZM353.422 200.428C353.015 200.428 352.665 200.293 352.371 200.024C352.078 199.749 351.931 199.42 351.931 199.036C351.931 198.648 352.078 198.319 352.371 198.049C352.665 197.774 353.015 197.637 353.422 197.637C353.834 197.637 354.185 197.774 354.473 198.049C354.767 198.319 354.914 198.648 354.914 199.036C354.914 199.42 354.767 199.749 354.473 200.024C354.185 200.293 353.834 200.428 353.422 200.428ZM362.089 217.204C361.165 217.204 360.372 217.078 359.71 216.828C359.047 216.581 358.514 216.25 358.112 215.833C357.709 215.417 357.43 214.955 357.273 214.448L359.589 213.887C359.693 214.1 359.844 214.311 360.043 214.519C360.242 214.732 360.51 214.908 360.846 215.045C361.187 215.187 361.615 215.258 362.131 215.258C362.861 215.258 363.464 215.08 363.942 214.725C364.421 214.375 364.66 213.797 364.66 212.992V210.926H364.532C364.399 211.191 364.205 211.463 363.95 211.742C363.699 212.022 363.365 212.256 362.948 212.445C362.536 212.635 362.018 212.729 361.393 212.729C360.555 212.729 359.795 212.533 359.113 212.14C358.436 211.742 357.896 211.15 357.494 210.364C357.096 209.574 356.897 208.584 356.897 207.396C356.897 206.198 357.096 205.187 357.494 204.363C357.896 203.534 358.438 202.907 359.12 202.481C359.802 202.05 360.562 201.835 361.4 201.835C362.039 201.835 362.565 201.944 362.977 202.161C363.393 202.374 363.725 202.632 363.971 202.935C364.217 203.234 364.404 203.515 364.532 203.781H364.674V201.977H367.21V213.063C367.21 213.996 366.987 214.768 366.542 215.379C366.097 215.989 365.488 216.446 364.717 216.749C363.945 217.052 363.069 217.204 362.089 217.204ZM362.11 210.712C362.655 210.712 363.119 210.58 363.502 210.315C363.886 210.05 364.177 209.668 364.376 209.171C364.575 208.674 364.674 208.078 364.674 207.381C364.674 206.695 364.575 206.094 364.376 205.578C364.182 205.061 363.893 204.661 363.509 204.377C363.13 204.088 362.664 203.944 362.11 203.944C361.537 203.944 361.059 204.093 360.675 204.391C360.292 204.69 360.003 205.099 359.809 205.62C359.615 206.136 359.518 206.723 359.518 207.381C359.518 208.049 359.615 208.634 359.809 209.136C360.008 209.633 360.299 210.021 360.683 210.301C361.071 210.575 361.547 210.712 362.11 210.712ZM372.415 206.494V212.886H369.844V198.34H372.359V203.83H372.487C372.742 203.215 373.138 202.729 373.673 202.374C374.212 202.015 374.899 201.835 375.732 201.835C376.49 201.835 377.15 201.993 377.714 202.31C378.277 202.628 378.713 203.092 379.021 203.703C379.333 204.313 379.489 205.059 379.489 205.94V212.886H376.918V206.337C376.918 205.604 376.729 205.033 376.35 204.626C375.976 204.214 375.451 204.008 374.773 204.008C374.319 204.008 373.912 204.107 373.552 204.306C373.197 204.5 372.917 204.782 372.714 205.151C372.515 205.521 372.415 205.968 372.415 206.494ZM387.558 201.977V203.965H381.286V201.977H387.558ZM382.835 199.363H385.406V209.604C385.406 209.95 385.458 210.215 385.562 210.4C385.671 210.58 385.813 210.703 385.988 210.769C386.163 210.836 386.357 210.869 386.57 210.869C386.731 210.869 386.878 210.857 387.011 210.833C387.148 210.81 387.252 210.788 387.323 210.769L387.756 212.779C387.619 212.827 387.423 212.879 387.167 212.935C386.916 212.992 386.608 213.025 386.244 213.035C385.6 213.054 385.02 212.957 384.504 212.744C383.987 212.526 383.578 212.19 383.275 211.735C382.977 211.281 382.83 210.712 382.835 210.031V199.363Z" fill="black"/>
<circle cx="194.401" cy="165.837" r="13.9969" fill="black"/>
<path d="M176.576 214.423C175.74 214.417 174.925 214.272 174.13 213.988C173.334 213.698 172.618 213.23 171.982 212.582C171.346 211.928 170.84 211.062 170.465 209.982C170.09 208.897 169.905 207.553 169.911 205.951C169.911 204.457 170.07 203.124 170.388 201.954C170.706 200.784 171.164 199.795 171.76 198.988C172.357 198.176 173.076 197.556 173.917 197.13C174.763 196.704 175.709 196.491 176.755 196.491C177.851 196.491 178.823 196.707 179.669 197.139C180.522 197.57 181.209 198.161 181.732 198.911C182.255 199.656 182.578 200.497 182.703 201.434H179.593C179.434 200.764 179.107 200.23 178.613 199.832C178.124 199.428 177.505 199.227 176.755 199.227C175.544 199.227 174.613 199.752 173.959 200.803C173.311 201.855 172.985 203.298 172.979 205.133H173.098C173.377 204.633 173.738 204.204 174.181 203.846C174.624 203.488 175.124 203.212 175.681 203.019C176.243 202.82 176.837 202.721 177.462 202.721C178.485 202.721 179.402 202.965 180.215 203.454C181.033 203.943 181.681 204.616 182.158 205.474C182.635 206.326 182.871 207.303 182.865 208.406C182.871 209.553 182.61 210.585 182.081 211.499C181.553 212.409 180.817 213.124 179.874 213.647C178.931 214.17 177.831 214.428 176.576 214.423ZM176.559 211.866C177.178 211.866 177.732 211.715 178.221 211.414C178.709 211.113 179.096 210.707 179.38 210.195C179.664 209.684 179.803 209.11 179.797 208.474C179.803 207.849 179.667 207.284 179.388 206.778C179.115 206.272 178.738 205.872 178.255 205.576C177.772 205.281 177.221 205.133 176.601 205.133C176.141 205.133 175.712 205.221 175.314 205.397C174.917 205.573 174.57 205.818 174.275 206.13C173.979 206.437 173.746 206.795 173.576 207.204C173.411 207.607 173.326 208.039 173.32 208.499C173.326 209.107 173.468 209.667 173.746 210.178C174.025 210.69 174.408 211.099 174.897 211.406C175.385 211.712 175.939 211.866 176.559 211.866ZM191.814 214.423C190.678 214.423 189.661 214.21 188.763 213.784C187.865 213.352 187.152 212.761 186.624 212.011C186.101 211.261 185.823 210.403 185.789 209.437H188.857C188.914 210.153 189.223 210.738 189.786 211.193C190.348 211.641 191.025 211.866 191.814 211.866C192.434 211.866 192.985 211.724 193.468 211.44C193.951 211.156 194.331 210.761 194.61 210.255C194.888 209.749 195.025 209.173 195.019 208.525C195.025 207.866 194.885 207.281 194.601 206.769C194.317 206.258 193.928 205.857 193.434 205.568C192.939 205.272 192.371 205.124 191.729 205.124C191.206 205.119 190.692 205.215 190.186 205.414C189.681 205.613 189.28 205.874 188.985 206.198L186.13 205.73L187.042 196.73H197.167V199.372H189.658L189.155 203.999H189.257C189.581 203.619 190.039 203.303 190.63 203.053C191.221 202.798 191.868 202.67 192.573 202.67C193.63 202.67 194.573 202.92 195.402 203.42C196.232 203.914 196.885 204.596 197.363 205.465C197.84 206.335 198.078 207.329 198.078 208.448C198.078 209.602 197.811 210.63 197.277 211.534C196.749 212.431 196.013 213.139 195.07 213.656C194.132 214.167 193.047 214.423 191.814 214.423ZM210.266 210.911V209.991C210.266 209.315 210.408 208.693 210.692 208.124C210.982 207.556 211.402 207.099 211.953 206.752C212.505 206.406 213.172 206.232 213.956 206.232C214.763 206.232 215.439 206.406 215.985 206.752C216.53 207.093 216.942 207.548 217.221 208.116C217.505 208.684 217.647 209.309 217.647 209.991V210.911C217.647 211.587 217.505 212.21 217.221 212.778C216.936 213.346 216.519 213.803 215.968 214.15C215.422 214.497 214.752 214.67 213.956 214.67C213.161 214.67 212.488 214.497 211.936 214.15C211.385 213.803 210.968 213.346 210.684 212.778C210.405 212.21 210.266 211.587 210.266 210.911ZM212.49 209.991V210.911C212.49 211.36 212.598 211.772 212.814 212.147C213.03 212.522 213.411 212.71 213.956 212.71C214.507 212.71 214.885 212.525 215.09 212.156C215.3 211.781 215.405 211.366 215.405 210.911V209.991C215.405 209.536 215.306 209.122 215.107 208.747C214.908 208.366 214.525 208.176 213.956 208.176C213.422 208.176 213.044 208.366 212.823 208.747C212.601 209.122 212.49 209.536 212.49 209.991ZM201.394 200.923V200.002C201.394 199.32 201.539 198.695 201.828 198.127C202.118 197.559 202.539 197.105 203.09 196.764C203.641 196.417 204.309 196.244 205.093 196.244C205.894 196.244 206.567 196.417 207.113 196.764C207.664 197.105 208.078 197.559 208.357 198.127C208.635 198.695 208.775 199.32 208.775 200.002V200.923C208.775 201.605 208.632 202.23 208.348 202.798C208.07 203.36 207.655 203.812 207.104 204.153C206.553 204.494 205.882 204.664 205.093 204.664C204.292 204.664 203.615 204.494 203.064 204.153C202.519 203.812 202.104 203.357 201.82 202.789C201.536 202.221 201.394 201.599 201.394 200.923ZM203.635 200.002V200.923C203.635 201.377 203.74 201.792 203.951 202.167C204.167 202.536 204.547 202.721 205.093 202.721C205.638 202.721 206.013 202.536 206.218 202.167C206.428 201.792 206.533 201.377 206.533 200.923V200.002C206.533 199.548 206.434 199.133 206.235 198.758C206.036 198.377 205.655 198.187 205.093 198.187C204.553 198.187 204.175 198.377 203.959 198.758C203.743 199.139 203.635 199.553 203.635 200.002ZM202.365 214.184L214.365 196.73H216.496L204.496 214.184H202.365Z" fill="#04694F"/>
</svg>
