<svg width="27" height="58" viewBox="0 0 27 58" fill="none" xmlns="http://www.w3.org/2000/svg">
<path d="M7.70482 55.2812V44.4062H19.8382V55.2812C19.8382 56.0023 20.1121 56.6938 20.5997 57.2037C21.0873 57.7136 21.7486 58 22.4382 58C23.1277 58 23.789 57.7136 24.2766 57.2037C24.7642 56.6938 25.0382 56.0023 25.0382 55.2812V43.5C25.5763 43.0779 26.0131 42.5306 26.314 41.9014C26.6149 41.2722 26.7715 40.5785 26.7715 39.875V25.375C26.7715 24.6715 26.6149 23.9778 26.314 23.3486C26.0131 22.7194 25.5763 22.1721 25.0382 21.75V15.2477C25.543 15.059 25.9798 14.7117 26.2886 14.2534C26.5974 13.7951 26.7631 13.2481 26.7631 12.6875C26.7631 12.1269 26.5974 11.5799 26.2886 11.1216C25.9798 10.6633 25.543 10.316 25.0382 10.1273V2.71875C25.0382 1.99769 24.7642 1.30617 24.2766 0.796303C23.789 0.286439 23.1277 8.10251e-08 22.4382 8.10251e-08C21.7486 8.10251e-08 21.0873 0.286439 20.5997 0.796303C20.1121 1.30617 19.8382 1.99769 19.8382 2.71875V9.96875H7.70482V2.71875C7.70482 1.99769 7.43089 1.30617 6.94329 0.796303C6.4557 0.286439 5.79438 0 5.10482 0C4.41525 0 3.75393 0.286439 3.26634 0.796303C2.77875 1.30617 2.50482 1.99769 2.50482 2.71875V10.1273C1.99994 10.316 1.56319 10.6633 1.25439 11.1216C0.945591 11.5799 0.779839 12.1269 0.779839 12.6875C0.779839 13.2481 0.945591 13.7951 1.25439 14.2534C1.56319 14.7117 1.99994 15.059 2.50482 15.2477V21.75C1.96663 22.1721 1.52982 22.7194 1.22897 23.3486C0.928112 23.9778 0.771484 24.6715 0.771484 25.375V39.875C0.771484 40.5785 0.928112 41.2722 1.22897 41.9014C1.52982 42.5306 1.96663 43.0779 2.50482 43.5V55.2812C2.50482 56.0023 2.77875 56.6938 3.26634 57.2037C3.75393 57.7136 4.41525 58 5.10482 58C5.79438 58 6.4557 57.7136 6.94329 57.2037C7.43089 56.6938 7.70482 56.0023 7.70482 55.2812ZM19.8382 15.4062V20.8438H7.70482V15.4062H19.8382ZM21.5715 26.2812V38.9688H16.3715V32.625C16.3715 31.9039 16.0976 31.2124 15.61 30.7026C15.1224 30.1927 14.461 29.9062 13.7715 29.9062C13.0819 29.9062 12.4206 30.1927 11.933 30.7026C11.4454 31.2124 11.1715 31.9039 11.1715 32.625V38.9688H5.97149V26.2812H21.5715Z" fill="#171414"/>
</svg>
