<svg width="39" height="30" viewBox="0 0 39 30" fill="none" xmlns="http://www.w3.org/2000/svg">
<path d="M38.7715 23.5709C38.7715 24.0315 38.6765 24.492 38.4865 24.9157C38.3027 25.3403 38.0385 25.7277 37.7075 26.0578C37.3636 26.3728 36.9646 26.6289 36.5295 26.8131C36.0833 26.9892 35.6052 27.0769 35.1235 27.071C32.9732 27.0357 30.8255 27.2335 28.7205 27.6605C26.226 27.9457 23.823 28.7433 21.6715 30V2.53373C23.7444 1.57582 25.9655 0.953177 28.2455 0.691593C30.566 0.245013 32.9292 0.041211 35.2945 0.0836882C36.2367 0.134403 37.1221 0.537171 37.7645 1.20739C38.3915 1.85582 38.7392 2.71242 38.7335 3.60217L38.7715 23.5709ZM17.8715 2.53373V30C15.7555 28.7554 13.3923 27.9582 10.9365 27.6605C8.79198 27.24 6.6073 27.0424 4.41954 27.071C3.93782 27.0769 3.45976 26.9892 3.01354 26.8131C2.57953 26.6279 2.18118 26.3725 1.83554 26.0578C1.49675 25.7338 1.23142 25.3448 1.05654 24.9157C0.865826 24.4916 0.768745 24.0336 0.771543 23.5709V3.49164C0.774536 2.60361 1.12557 1.74988 1.75354 1.10342C2.3815 0.456951 3.23944 0.066084 4.15354 0.0100023C6.56977 -0.0492206 8.98522 0.154691 11.3545 0.617908C13.6225 0.896708 15.8257 1.5444 17.8715 2.53373Z" fill="#171414"/>
</svg>
