<svg width="41" height="44" viewBox="0 0 41 44" fill="none" xmlns="http://www.w3.org/2000/svg">
<path d="M40.7715 39.6V8.8C40.7715 6.3734 38.7782 4.4 36.327 4.4H31.8826V0H27.4382V4.4H14.1048V0H9.66037V4.4H5.21593C2.76482 4.4 0.771484 6.3734 0.771484 8.8V39.6C0.771484 42.0266 2.76482 44 5.21593 44H36.327C38.7782 44 40.7715 42.0266 40.7715 39.6ZM14.1048 35.2H9.66037V30.8H14.1048V35.2ZM14.1048 26.4H9.66037V22H14.1048V26.4ZM22.9937 35.2H18.5493V30.8H22.9937V35.2ZM22.9937 26.4H18.5493V22H22.9937V26.4ZM31.8826 35.2H27.4382V30.8H31.8826V35.2ZM31.8826 26.4H27.4382V22H31.8826V26.4ZM36.327 15.4H5.21593V11H36.327V15.4Z" fill="#171414"/>
</svg>
