<svg width="58" height="58" viewBox="0 0 58 58" fill="none" xmlns="http://www.w3.org/2000/svg">
<g clip-path="url(#clip0_2689_4219)">
<path d="M46.2188 10.875H11.7812C8.27769 10.875 5.4375 13.7152 5.4375 17.2188V40.7812C5.4375 44.2848 8.27769 47.125 11.7812 47.125H46.2188C49.7223 47.125 52.5625 44.2848 52.5625 40.7812V17.2188C52.5625 13.7152 49.7223 10.875 46.2188 10.875Z" stroke="#171414" stroke-width="2" stroke-linecap="round" stroke-linejoin="round"/>
<path d="M5.4375 21.75H52.5625M14.5 33.9844H19.9375V36.25H14.5V33.9844Z" stroke="#171414" stroke-width="2" stroke-linejoin="round"/>
<path fill-rule="evenodd" clip-rule="evenodd" d="M56.5 28H32.5V42C32.5 45.1826 33.7643 48.2348 36.0147 50.4853C38.2652 52.7357 41.3174 54 44.5 54C47.6826 54 50.7348 52.7357 52.9853 50.4853C55.2357 48.2348 56.5 45.1826 56.5 42V28ZM40.208 38.292L38.792 39.708L43.5 44.414L51.208 36.708L49.794 35.292L43.5 41.586L40.208 38.292Z" fill="#171414"/>
</g>
<defs>
<clipPath id="clip0_2689_4219">
<rect width="58" height="58" fill="white"/>
</clipPath>
</defs>
</svg>
