<svg width="45" height="44" viewBox="0 0 45 44" fill="none" xmlns="http://www.w3.org/2000/svg">
<path d="M22.7715 0C34.9221 0 44.7715 9.8494 44.7715 22C44.7715 34.1506 34.9221 44 22.7715 44C10.6209 44 0.771484 34.1506 0.771484 22C0.771484 9.8494 10.6209 0 22.7715 0ZM22.7715 4.4C18.1037 4.4 13.627 6.25428 10.3264 9.55492C7.02577 12.8556 5.17148 17.3322 5.17148 22C5.17148 26.6678 7.02577 31.1444 10.3264 34.4451C13.627 37.7457 18.1037 39.6 22.7715 39.6C27.4393 39.6 31.9159 37.7457 35.2166 34.4451C38.5172 31.1444 40.3715 26.6678 40.3715 22C40.3715 17.3322 38.5172 12.8556 35.2166 9.55492C31.9159 6.25428 27.4393 4.4 22.7715 4.4ZM22.7715 8.8C23.3103 8.80007 23.8304 8.9979 24.2331 9.35597C24.6358 9.71404 24.893 10.2074 24.9561 10.7426L24.9715 11V21.0892L30.9269 27.0446C31.3214 27.4405 31.5505 27.9718 31.5676 28.5304C31.5846 29.0891 31.3884 29.6334 31.0187 30.0526C30.6491 30.4719 30.1337 30.7347 29.5772 30.7877C29.0208 30.8407 28.4651 30.6799 28.0229 30.338L27.8161 30.1554L21.2161 23.5554C20.8742 23.2132 20.6546 22.7678 20.5913 22.2882L20.5715 22V11C20.5715 10.4165 20.8033 9.85695 21.2159 9.44437C21.6284 9.03179 22.188 8.8 22.7715 8.8Z" fill="#171414"/>
</svg>
