<svg width="50" height="50" viewBox="0 0 50 50" fill="none" xmlns="http://www.w3.org/2000/svg">
<path fill-rule="evenodd" clip-rule="evenodd" d="M25.0007 46.75C37.0127 46.75 46.7507 37.012 46.7507 25C46.7507 12.9879 37.0127 3.24998 25.0007 3.24998C12.9886 3.24998 3.25065 12.9879 3.25065 25C3.25065 37.012 12.9886 46.75 25.0007 46.75ZM25.0007 49.1666C38.3479 49.1666 49.1673 38.3472 49.1673 25C49.1673 11.6527 38.3479 0.833313 25.0007 0.833313C11.6534 0.833313 0.833984 11.6527 0.833984 25C0.833984 38.3472 11.6534 49.1666 25.0007 49.1666Z" fill="#171414"/>
<path fill-rule="evenodd" clip-rule="evenodd" d="M37.8929 15.6462C38.1307 15.861 38.2734 16.1614 38.2897 16.4813C38.306 16.8013 38.1946 17.1146 37.9799 17.3524L21.8415 35.1886L12.083 25.8736C11.8638 25.6496 11.7403 25.3493 11.7383 25.036C11.7364 24.7227 11.8562 24.4209 12.0725 24.1943C12.2888 23.9676 12.5847 23.8338 12.8977 23.8212C13.2108 23.8085 13.5165 23.9179 13.7505 24.1263L21.7134 31.7267L36.188 15.732C36.2945 15.6143 36.4232 15.5188 36.5667 15.4508C36.7101 15.3828 36.8656 15.3438 37.0242 15.336C37.1827 15.3281 37.3413 15.3516 37.4908 15.405C37.6402 15.4585 37.7777 15.5408 37.8954 15.6475" fill="#171414"/>
</svg>
