<svg width="25" height="25" viewBox="0 0 25 25" fill="none" xmlns="http://www.w3.org/2000/svg">
<path d="M2.5 0C1.12333 0 0 1.12333 0 2.5C0.00122784 3.03352 0.172541 3.55276 0.489049 3.98226C0.805557 4.41177 1.25077 4.72916 1.76 4.88833L3.62917 20.4117C3.28261 20.6389 2.99798 20.9487 2.80088 21.3132C2.60378 21.6778 2.50038 22.0856 2.5 22.5C2.5 23.8767 3.62333 25 5 25H20C21.3767 25 22.5 23.8767 22.5 22.5C22.5 21.6083 22.03 20.825 21.325 20.3817L23.1883 4.90333C23.7096 4.75262 24.168 4.4369 24.4947 4.00357C24.8213 3.57024 24.9986 3.04266 25 2.5C25 1.12333 23.8767 0 22.5 0H2.5ZM1.66667 2.5C1.66667 2.04333 2.04333 1.66667 2.5 1.66667H22.5C22.9567 1.66667 23.3333 2.04333 23.3333 2.5C23.3333 2.95667 22.9567 3.33333 22.5 3.33333H2.5C2.04333 3.33333 1.66667 2.95667 1.66667 2.5ZM20.81 5L20.28 9.39583L20.0033 9.9225L18.4533 6.97667L19.4917 5H20.81ZM17.5958 5L17.5042 5.175L17.4125 5H17.5958ZM15.515 5L16.555 6.97917L15.045 9.85L13.4583 6.83417L14.4233 5H15.515ZM12.52 5L12.5067 5.025L12.4933 5H12.52ZM10.59 5L11.555 6.83417L9.96833 9.85083L8.4575 6.9775L9.4975 5H10.59ZM7.59583 5L7.50667 5.17L7.41667 5H7.59583ZM5.51333 5L6.555 6.98083L5.0075 9.92667L4.65167 9.25L4.14 5H5.51333ZM8.40333 20H6.5325L7.46833 18.2225L8.40333 20ZM13.4033 20H11.6083L12.5058 18.2933L13.4033 20ZM18.48 20H16.6083L17.5433 18.2217L18.48 20ZM18.4958 16.4117L19.715 14.0925L19.26 17.865L18.4958 16.4117ZM5.21667 13.9433L6.515 16.4125L5.70083 17.9617L5.21667 13.9433ZM17.5025 8.78333L19.0525 11.7317L17.5425 14.6017L15.9933 11.655L17.5025 8.78333ZM15.0417 13.4658L16.5917 16.4117L15.005 19.4283L13.4558 16.4825L15.0417 13.4658ZM10.0058 19.4292L8.41917 16.4125L9.9675 13.4692L11.5542 16.4858L10.0058 19.4292ZM12.5058 14.6758L10.9192 11.6592L12.5058 8.64417L14.0925 11.6608L12.5058 14.6758ZM7.4675 14.6033L5.95583 11.7308L7.505 8.78667L9.01583 11.66L7.4675 14.6033ZM5 21.6667H20C20.4567 21.6667 20.8333 22.0433 20.8333 22.5C20.8333 22.9567 20.4567 23.3333 20 23.3333H5C4.54333 23.3333 4.16667 22.9567 4.16667 22.5C4.16667 22.0433 4.54333 21.6667 5 21.6667Z" fill="black"/>
</svg>
