<svg width="48" height="49" viewBox="0 0 48 49" fill="none" xmlns="http://www.w3.org/2000/svg">
<path d="M24 0.5C37.2548 0.5 48 11.2452 48 24.5C48 37.7548 37.2548 48.5 24 48.5C10.7452 48.5 0 37.7548 0 24.5C0 11.2452 10.7452 0.5 24 0.5ZM28.29 13.502C28.251 13.4951 28.2115 13.5116 28.1914 13.5459C27.9277 13.9971 27.6362 14.5861 27.4316 15.0488C25.1259 14.7167 22.8317 14.7167 20.5732 15.0488C20.3687 14.5758 20.0657 13.9971 19.8008 13.5459C19.7806 13.5128 19.7411 13.4962 19.7021 13.502C17.5596 13.857 15.5088 14.4781 13.5957 15.3232C13.5793 15.3301 13.565 15.3417 13.5557 15.3564C9.66643 20.9467 8.60137 26.3999 9.12402 31.7852C9.12639 31.8115 9.14183 31.8365 9.16309 31.8525C11.7291 33.6655 14.2148 34.7665 16.6543 35.4961C16.6933 35.5074 16.735 35.4938 16.7598 35.4629C17.3368 34.7048 17.851 33.9051 18.292 33.0645C18.3179 33.0154 18.2931 32.9571 18.2402 32.9375C17.4243 32.6397 16.6468 32.2766 15.8994 31.8643C15.8405 31.831 15.8363 31.7498 15.8906 31.7109C16.0477 31.5977 16.2045 31.4793 16.3545 31.3604C16.3817 31.3386 16.4202 31.3339 16.4521 31.3477C21.3617 33.5042 26.6767 33.5041 31.5283 31.3477C31.5603 31.3328 31.5986 31.3376 31.627 31.3594C31.7771 31.4784 31.9344 31.5976 32.0928 31.7109C32.1469 31.7498 32.1437 31.8309 32.085 31.8643C31.3376 32.2846 30.5603 32.6399 29.7432 32.9365C29.69 32.956 29.6664 33.0152 29.6924 33.0645C30.1429 33.904 30.6572 34.7037 31.2236 35.4619C31.2473 35.4939 31.2901 35.5075 31.3291 35.4961C33.7803 34.7665 36.2661 33.6655 38.832 31.8525C38.8544 31.8365 38.8687 31.8124 38.8711 31.7861C39.4965 25.5605 37.8232 20.1525 34.4355 15.3584C34.4273 15.3424 34.413 15.3301 34.3965 15.3232C32.4845 14.4792 30.4338 13.8581 28.29 13.502ZM19.0254 22.6885C20.5387 22.6887 21.7441 24.005 21.7207 25.5967C21.7207 27.2 20.527 28.5056 19.0254 28.5059C17.5472 28.5059 16.3291 27.2001 16.3291 25.5967C16.3293 23.9934 17.5237 22.6885 19.0254 22.6885ZM28.9932 22.6885C30.5066 22.6885 31.7129 24.0049 31.6895 25.5967C31.6895 27.2001 30.5068 28.5059 28.9932 28.5059C27.5152 28.5057 26.2979 27.2 26.2979 25.5967C26.2981 23.9935 27.4916 22.6886 28.9932 22.6885Z" fill="white"/>
</svg>
