<svg width="36" height="33" viewBox="0 0 36 33" fill="none" xmlns="http://www.w3.org/2000/svg">
<path fill-rule="evenodd" clip-rule="evenodd" d="M18 0C8.33502 0 0.5 7.3873 0.5 16.5C0.5 25.6127 8.33502 33 18 33C27.665 33 35.5 25.6127 35.5 16.5C35.5 7.3873 27.665 0 18 0ZM21.128 8.93853C22.6913 9.1834 24.1864 9.61096 25.5806 10.1913C25.5927 10.196 25.603 10.2039 25.609 10.2149C28.0794 13.511 29.2994 17.229 28.8433 21.5094C28.8416 21.5275 28.8312 21.544 28.8148 21.555C26.9438 22.8015 25.1314 23.5582 23.344 24.0597C23.3155 24.0676 23.2845 24.0582 23.2672 24.0361C22.8542 23.5149 22.4791 22.9653 22.1506 22.3881C22.1317 22.3542 22.1489 22.3133 22.1877 22.2999C22.7835 22.096 23.35 21.8519 23.8949 21.5629C23.938 21.5401 23.9406 21.4842 23.901 21.4574C23.7854 21.3794 23.6708 21.2976 23.5612 21.2157C23.5406 21.2007 23.513 21.1975 23.4897 21.2078C19.9519 22.6905 16.0762 22.6905 12.4962 21.2078C12.4729 21.1983 12.4453 21.2015 12.4255 21.2164C12.316 21.2983 12.2013 21.3794 12.0866 21.4574C12.047 21.4842 12.0504 21.5401 12.0935 21.5629C12.6384 21.8464 13.2049 22.096 13.7999 22.3007C13.8387 22.3141 13.8568 22.3542 13.8378 22.3881C13.5162 22.9661 13.1411 23.5157 12.7204 24.0369C12.7022 24.0582 12.6721 24.0676 12.6436 24.0597C10.8648 23.5582 9.0524 22.8015 7.18135 21.555C7.16583 21.544 7.15462 21.5267 7.1529 21.5086C6.77179 17.8062 7.54866 14.0574 10.3846 10.2141C10.3914 10.2039 10.4018 10.196 10.4139 10.1913C11.809 9.61018 13.3041 9.18262 14.8665 8.93853C14.8949 8.93459 14.9234 8.9464 14.938 8.96923C15.1312 9.27946 15.3519 9.67711 15.5011 10.0023C17.148 9.77395 18.8207 9.77395 20.502 10.0023C20.6512 9.68419 20.8642 9.27946 21.0565 8.96923C21.0711 8.94561 21.0996 8.9338 21.128 8.93853ZM12.4065 17.2543C12.4065 18.3566 13.2946 19.2542 14.3724 19.2542C15.4674 19.2542 16.3383 18.3566 16.3383 17.2543C16.3556 16.1598 15.4761 15.2543 14.3724 15.2543C13.2774 15.2543 12.4065 16.1519 12.4065 17.2543ZM19.6752 17.2543C19.6752 18.3566 20.5633 19.2542 21.641 19.2542C22.7447 19.2542 23.607 18.3566 23.607 17.2543C23.6242 16.1598 22.7447 15.2543 21.641 15.2543C20.546 15.2543 19.6752 16.1519 19.6752 17.2543Z" fill="white"/>
</svg>
