<svg width="18" height="18" viewBox="0 0 18 18" fill="none" xmlns="http://www.w3.org/2000/svg">
<path d="M16.501 6.1215V6.17625C16.501 6.82125 16.501 7.1445 16.3457 7.4085C16.1905 7.6725 15.9077 7.82925 15.3437 8.1435L14.749 8.4735C15.1585 7.0875 15.2957 5.598 15.346 4.3245L15.3535 4.15875L15.355 4.11975C15.8432 4.28925 16.1177 4.416 16.2887 4.653C16.501 4.94775 16.501 5.33925 16.501 6.1215ZM1.50098 6.1215V6.17625C1.50098 6.82125 1.50098 7.1445 1.65623 7.4085C1.81148 7.6725 2.09423 7.82925 2.65823 8.1435L3.25373 8.4735C2.84348 7.0875 2.70623 5.598 2.65598 4.3245L2.64848 4.15875L2.64773 4.11975C2.15873 4.28925 1.88423 4.416 1.71323 4.653C1.50098 4.94775 1.50098 5.34 1.50098 6.1215Z" fill="#009C05"/>
<path fill-rule="evenodd" clip-rule="evenodd" d="M11.6429 1.73164C10.5578 1.55389 9.45972 1.46684 8.36014 1.47139C7.02289 1.47139 5.92039 1.58914 5.07739 1.73164C4.22314 1.87564 3.79639 1.94764 3.43939 2.38714C3.08314 2.82664 3.10189 3.30139 3.13939 4.25089C3.26914 7.51189 3.97264 11.5859 7.79764 11.9459V14.5964H6.72514C6.55182 14.5965 6.38389 14.6566 6.24989 14.7666C6.1159 14.8765 6.02411 15.0294 5.99014 15.1994L5.84764 15.9089H3.86014C3.71096 15.9089 3.56788 15.9682 3.46239 16.0736C3.35691 16.1791 3.29764 16.3222 3.29764 16.4714C3.29764 16.6206 3.35691 16.7637 3.46239 16.8691C3.56788 16.9746 3.71096 17.0339 3.86014 17.0339H12.8601C13.0093 17.0339 13.1524 16.9746 13.2579 16.8691C13.3634 16.7637 13.4226 16.6206 13.4226 16.4714C13.4226 16.3222 13.3634 16.1791 13.2579 16.0736C13.1524 15.9682 13.0093 15.9089 12.8601 15.9089H10.8726L10.7301 15.1994C10.6962 15.0294 10.6044 14.8765 10.4704 14.7666C10.3364 14.6566 10.1685 14.5965 9.99514 14.5964H8.92264V11.9459C12.7476 11.5859 13.4519 7.51264 13.5809 4.25089C13.6184 3.30139 13.6379 2.82589 13.2809 2.38714C12.9239 1.94764 12.4971 1.87564 11.6429 1.73164Z" fill="#036B06"/>
</svg>
