<svg width="41" height="50" viewBox="0 0 41 50" fill="none" xmlns="http://www.w3.org/2000/svg">
<path d="M40.7715 24.9489C40.7715 17.5815 36.741 11.1521 30.7727 7.69423V2.49489C30.7727 1.8332 30.5093 1.19862 30.0404 0.730735C29.5715 0.262853 28.9355 0 28.2724 0H13.2705C12.6074 0 11.9715 0.262853 11.5026 0.730735C11.0337 1.19862 10.7702 1.8332 10.7702 2.49489V7.69173C4.80199 11.1496 0.771484 17.5815 0.771484 24.9489C0.773703 28.5164 1.73417 32.0181 3.55291 35.0896C5.37164 38.161 7.98218 40.6899 11.1128 42.4131H10.7702V47.5051C10.7702 48.1668 11.0337 48.8014 11.5026 49.2693C11.9715 49.7371 12.6074 50 13.2705 50H28.2724C28.9355 50 29.5715 49.7371 30.0404 49.2693C30.5093 48.8014 30.7727 48.1668 30.7727 47.5051V42.4131H30.4252C33.5567 40.6906 36.1683 38.162 37.9879 35.0905C39.8076 32.019 40.7688 28.5169 40.7715 24.9489ZM20.769 39.9157C16.7926 39.911 12.9804 38.3326 10.1688 35.5267C7.3573 32.7208 5.77608 28.9167 5.77211 24.9489C5.77608 20.9811 7.3573 17.1769 10.1688 14.371C12.9804 11.5651 16.7926 9.98666 20.769 9.98204C29.045 9.98204 35.7709 16.6958 35.7709 24.9489C35.7669 28.9175 34.185 32.7225 31.3724 35.5285C28.5598 38.3345 24.7463 39.9124 20.769 39.9157Z" fill="#171414"/>
<path d="M20.5715 19H15.7715V31H27.7715V26.2H20.5715V19Z" fill="#171414"/>
</svg>
