<svg width="20" height="20" viewBox="0 0 20 20" fill="none" xmlns="http://www.w3.org/2000/svg">
<mask id="path-1-inside-1_2419_3255" fill="white">
<path d="M10.1 16.375L10 16.475L9.89 16.375C5.14 12.065 2 9.21501 2 6.32501C2 4.32501 3.5 2.82501 5.5 2.82501C7.04 2.82501 8.54 3.82501 9.07 5.18501H10.93C11.46 3.82501 12.96 2.82501 14.5 2.82501C16.5 2.82501 18 4.32501 18 6.32501C18 9.21501 14.86 12.065 10.1 16.375ZM14.5 0.825012C12.76 0.825012 11.09 1.63501 10 2.90501C8.91 1.63501 7.24 0.825012 5.5 0.825012C2.42 0.825012 0 3.23501 0 6.32501C0 10.095 3.4 13.185 8.55 17.855L10 19.175L11.45 17.855C16.6 13.185 20 10.095 20 6.32501C20 3.23501 17.58 0.825012 14.5 0.825012Z"/>
</mask>
<path d="M10.1 16.375L0.703219 5.99713L0.445932 6.23009L0.200505 6.47552L10.1 16.375ZM10 16.475L0.582545 26.8341L10.4602 35.8138L19.8995 26.3745L10 16.475ZM9.89 16.375L19.3075 6.01588L19.2976 6.00697L9.89 16.375ZM9.07 5.18501L-3.97446 10.2685L-0.499652 19.185H9.07V5.18501ZM10.93 5.18501V19.185H20.4997L23.9745 10.2685L10.93 5.18501ZM10 2.90501L-0.623685 12.023L10 24.401L20.6237 12.023L10 2.90501ZM8.55 17.855L17.9745 7.50232L17.9645 7.49316L17.9544 7.48401L8.55 17.855ZM10 19.175L0.575476 29.5277L10 38.1073L19.4245 29.5277L10 19.175ZM11.45 17.855L2.04562 7.48401L2.03554 7.49316L2.02548 7.50232L11.45 17.855ZM10.1 16.375L0.200505 6.47552L0.100505 6.57552L10 16.475L19.8995 26.3745L19.9995 26.2745L10.1 16.375ZM10 16.475L19.4175 6.11588L19.3075 6.01588L9.89 16.375L0.472545 26.7341L0.582545 26.8341L10 16.475ZM9.89 16.375L19.2976 6.00697C18.0763 4.89874 17.1289 4.03787 16.319 3.26499C15.5052 2.48829 15.0512 2.00805 14.8044 1.71934C14.5387 1.40855 14.7746 1.61983 15.0995 2.27285C15.4646 3.0067 16 4.42031 16 6.32501H2H-12C-12 12.9358 -8.42716 17.6348 -6.4769 19.9157C-4.39075 22.3555 -1.64435 24.8133 0.482363 26.7431L9.89 16.375ZM2 6.32501H16C16 8.91956 14.9826 11.6414 12.8995 13.7245C10.8164 15.8076 8.09455 16.825 5.5 16.825V2.82501V-11.175C-4.23199 -11.175 -12 -3.40697 -12 6.32501H2ZM5.5 2.82501V16.825C3.28566 16.825 1.38651 16.1303 -0.0701543 15.1649C-1.51159 14.2096 -3.05506 12.6277 -3.97446 10.2685L9.07 5.18501L22.1145 0.101509C19.3729 -6.93357 12.4827 -11.175 5.5 -11.175V2.82501ZM9.07 5.18501V19.185H10.93V5.18501V-8.81499H9.07V5.18501ZM10.93 5.18501L23.9745 10.2685C23.0551 12.6277 21.5116 14.2096 20.0702 15.1649C18.6135 16.1303 16.7143 16.825 14.5 16.825V2.82501V-11.175C7.51726 -11.175 0.62715 -6.93357 -2.11446 0.101509L10.93 5.18501ZM14.5 2.82501V16.825C11.9055 16.825 9.18363 15.8076 7.1005 13.7245C5.01738 11.6414 4 8.91956 4 6.32501H18H32C32 -3.40697 24.232 -11.175 14.5 -11.175V2.82501ZM18 6.32501H4C4 4.42008 4.53557 3.00583 4.90141 2.27073C5.22695 1.61661 5.4637 1.40462 5.19843 1.71458C4.95207 2.00244 4.49822 2.48213 3.68413 3.25794C2.87434 4.02966 1.92555 4.89035 0.703219 5.99713L10.1 16.375L19.4968 26.7529C21.6315 24.82 24.3814 22.3628 26.4716 19.9204C28.4257 17.6371 32 12.9376 32 6.32501H18ZM14.5 0.825012V-13.175C8.52775 -13.175 3.02777 -10.4674 -0.623685 -6.21295L10 2.90501L20.6237 12.023C19.1522 13.7374 16.9922 14.825 14.5 14.825V0.825012ZM10 2.90501L20.6237 -6.21295C16.9722 -10.4674 11.4722 -13.175 5.5 -13.175V0.825012V14.825C3.00775 14.825 0.847772 13.7374 -0.623685 12.023L10 2.90501ZM5.5 0.825012V-13.175C-5.2953 -13.175 -14 -4.51365 -14 6.32501H0H14C14 10.9837 10.1353 14.825 5.5 14.825V0.825012ZM0 6.32501H-14C-14 12.8126 -10.9515 17.6084 -8.49595 20.6126C-6.19432 23.4285 -3.15411 26.1406 -0.854381 28.226L8.55 17.855L17.9544 7.48401C16.6282 6.28147 15.6173 5.36269 14.7573 4.53366C13.8977 3.70517 13.4317 3.19619 13.1834 2.89243C12.9356 2.58922 13.1311 2.7616 13.3922 3.34555C13.6949 4.0225 14 5.06253 14 6.32501H0ZM8.55 17.855L-0.874524 28.2077L0.575476 29.5277L10 19.175L19.4245 8.82231L17.9745 7.50232L8.55 17.855ZM10 19.175L19.4245 29.5277L20.8745 28.2077L11.45 17.855L2.02548 7.50232L0.575476 8.82231L10 19.175ZM11.45 17.855L20.8544 28.226C23.1541 26.1406 26.1943 23.4285 28.4959 20.6126C30.9515 17.6084 34 12.8126 34 6.32501H20H6C6 5.06253 6.30508 4.0225 6.60777 3.34555C6.86889 2.7616 7.06439 2.58922 6.81655 2.89243C6.56827 3.19619 6.10226 3.70517 5.24274 4.53366C4.38266 5.36269 3.37176 6.28147 2.04562 7.48401L11.45 17.855ZM20 6.32501H34C34 -4.51365 25.2953 -13.175 14.5 -13.175V0.825012V14.825C9.86469 14.825 6 10.9837 6 6.32501H20Z" fill="#04694F" mask="url(#path-1-inside-1_2419_3255)"/>
</svg>
