<svg width="36" height="35" viewBox="0 0 36 35" fill="none" xmlns="http://www.w3.org/2000/svg">
<path d="M0.5 17.5C0.5 7.83502 8.33502 0 18 0C27.665 0 35.5 7.83502 35.5 17.5C35.5 27.165 27.665 35 18 35C8.33502 35 0.5 27.165 0.5 17.5Z" fill="white"/>
<path fill-rule="evenodd" clip-rule="evenodd" d="M18.0003 7.2915C15.2277 7.2915 14.8807 7.30307 13.7918 7.35275C12.7049 7.40243 11.9624 7.5753 11.3132 7.82778C10.6326 8.08367 10.0154 8.4852 9.50495 9.00514C8.98584 9.51497 8.58406 10.1318 8.32759 10.8127C8.07646 11.4619 7.90292 12.2051 7.85324 13.292C7.80424 14.3802 7.79199 14.7266 7.79199 17.4998C7.79199 20.2731 7.80356 20.6195 7.85324 21.7084C7.90292 22.7952 8.07578 23.5377 8.32827 24.187C8.58416 24.8675 8.98569 25.4848 9.50563 25.9952C10.0155 26.5143 10.6323 26.9161 11.3132 27.1726C11.9624 27.4244 12.7049 27.5972 13.7918 27.6469C14.8807 27.6966 15.2277 27.7082 18.0003 27.7082C20.7729 27.7082 21.12 27.6966 22.2089 27.6469C23.2957 27.5972 24.0382 27.4244 24.6875 27.1719C25.368 26.916 25.9853 26.5145 26.4957 25.9945C27.0148 25.4847 27.4166 24.8679 27.6731 24.187C27.9249 23.5377 28.0977 22.7952 28.1474 21.7084C28.1971 20.6195 28.2087 20.2724 28.2087 17.4998C28.2087 14.7273 28.1971 14.3802 28.1474 13.2913C28.0977 12.2044 27.9249 11.4619 27.6724 10.8127C27.4161 10.1315 27.0143 9.51442 26.495 9.00446C25.9852 8.48535 25.3684 8.08357 24.6875 7.8271C24.0382 7.57598 23.295 7.40243 22.2082 7.35275C21.12 7.30375 20.7736 7.2915 18.0003 7.2915ZM18.0003 9.13105C20.726 9.13105 21.0492 9.14125 22.1259 9.19025C23.1208 9.23585 23.6612 9.40123 24.0212 9.5421C24.4976 9.72653 24.8379 9.94839 25.1952 10.305C25.5525 10.6623 25.7736 11.0026 25.9581 11.479C26.0983 11.839 26.2643 12.3793 26.3099 13.3743C26.3589 14.4509 26.3691 14.7742 26.3691 17.4998C26.3691 20.2255 26.3589 20.5487 26.3099 21.6254C26.2643 22.6203 26.0989 23.1607 25.9581 23.5207C25.7947 23.9641 25.534 24.3653 25.1952 24.6947C24.8658 25.0336 24.4647 25.2943 24.0212 25.4576C23.6612 25.5978 23.1208 25.7638 22.1259 25.8094C21.0492 25.8584 20.7266 25.8686 18.0003 25.8686C15.274 25.8686 14.9514 25.8584 13.8748 25.8094C12.8798 25.7638 12.3395 25.5984 11.9795 25.4576C11.536 25.2942 11.1349 25.0335 10.8055 24.6947C10.4667 24.3652 10.206 23.9641 10.0426 23.5207C9.9024 23.1607 9.73634 22.6203 9.69074 21.6254C9.64174 20.5487 9.63153 20.2255 9.63153 17.4998C9.63153 14.7742 9.64174 14.4509 9.69074 13.3743C9.73634 12.3793 9.90171 11.839 10.0426 11.479C10.227 11.0026 10.4489 10.6623 10.8055 10.305C11.1348 9.96612 11.536 9.70542 11.9795 9.5421C12.3395 9.40191 12.8798 9.23585 13.8748 9.19025C14.9514 9.14125 15.2747 9.13105 18.0003 9.13105Z" fill="black"/>
<path fill-rule="evenodd" clip-rule="evenodd" d="M17.9881 20.7886C17.5539 20.7886 17.1241 20.7018 16.723 20.5329C16.3219 20.3641 15.9574 20.1167 15.6505 19.8048C15.3435 19.4928 15.1 19.1225 14.9338 18.7149C14.7677 18.3074 14.6822 17.8706 14.6822 17.4294C14.6822 16.9883 14.7677 16.5515 14.9338 16.1439C15.1 15.7363 15.3435 15.366 15.6505 15.0541C15.9574 14.7422 16.3219 14.4947 16.723 14.3259C17.1241 14.1571 17.5539 14.0702 17.9881 14.0702C18.8648 14.0702 19.7057 14.4241 20.3257 15.0541C20.9457 15.6841 21.2939 16.5385 21.2939 17.4294C21.2939 18.3203 20.9457 19.1748 20.3257 19.8048C19.7057 20.4347 18.8648 20.7886 17.9881 20.7886ZM17.9881 12.2547C16.6374 12.2547 15.3421 12.7999 14.3871 13.7703C13.432 14.7408 12.8955 16.057 12.8955 17.4294C12.8955 18.8018 13.432 20.1181 14.3871 21.0885C15.3421 22.059 16.6374 22.6042 17.9881 22.6042C19.3387 22.6042 20.634 22.059 21.5891 21.0885C22.5441 20.1181 23.0806 18.8018 23.0806 17.4294C23.0806 16.057 22.5441 14.7408 21.5891 13.7703C20.634 12.7999 19.3387 12.2547 17.9881 12.2547ZM24.5622 12.1607C24.5622 12.4851 24.4353 12.7963 24.2096 13.0257C23.9838 13.2551 23.6777 13.3839 23.3584 13.3839C23.0391 13.3839 22.7329 13.2551 22.5072 13.0257C22.2814 12.7963 22.1546 12.4851 22.1546 12.1607C22.1546 11.8363 22.2814 11.5252 22.5072 11.2958C22.7329 11.0664 23.0391 10.9375 23.3584 10.9375C23.6777 10.9375 23.9838 11.0664 24.2096 11.2958C24.4353 11.5252 24.5622 11.8363 24.5622 12.1607Z" fill="black"/>
</svg>
