<svg width="55" height="54" viewBox="0 0 55 54" fill="none" xmlns="http://www.w3.org/2000/svg">
<path d="M27.7715 31.5C32.735 31.5 36.7715 27.4635 36.7715 22.5C36.7715 17.5365 32.735 13.5 27.7715 13.5C22.808 13.5 18.7715 17.5365 18.7715 22.5C18.7715 27.4635 22.808 31.5 27.7715 31.5ZM27.7715 18C30.2532 18 32.2715 20.0182 32.2715 22.5C32.2715 24.9818 30.2532 27 27.7715 27C25.2897 27 23.2715 24.9818 23.2715 22.5C23.2715 20.0182 25.2897 18 27.7715 18Z" fill="#171414"/>
<path d="M26.4667 49.0815C26.8477 49.3528 27.3039 49.4986 27.7717 49.4986C28.2395 49.4986 28.6956 49.3528 29.0767 49.0815C29.7607 48.5977 45.8369 36.99 45.7717 22.5C45.7717 12.5753 37.6964 4.5 27.7717 4.5C17.8469 4.5 9.77168 12.5752 9.77168 22.4888C9.70643 36.99 25.7827 48.5977 26.4667 49.0815ZM27.7717 9C35.2169 9 41.2717 15.0548 41.2717 22.5112C41.3189 32.4967 31.3987 41.463 27.7717 44.4038C24.1469 41.4608 14.2244 32.4923 14.2717 22.5C14.2717 15.0548 20.3264 9 27.7717 9Z" fill="#171414"/>
</svg>
