<svg width="39" height="40" viewBox="0 0 39 40" fill="none" xmlns="http://www.w3.org/2000/svg">
<path d="M2.52214 9.86935V35.4304C2.52214 35.8638 2.6615 36.2199 2.94022 36.4986C3.21894 36.7773 3.5758 36.9167 4.0108 36.9167H34.8692C35.3026 36.9167 35.6587 36.7773 35.9374 36.4986C36.2161 36.2199 36.3555 35.8638 36.3555 35.4304V9.86935H26.6888V23.0885C26.6888 23.8296 26.3835 24.3935 25.7729 24.7802C25.1623 25.1669 24.5315 25.1894 23.8806 24.8479L19.4388 22.6487L14.9946 24.8479C14.3453 25.1878 13.7153 25.1652 13.1047 24.7802C12.4941 24.3935 12.1888 23.8296 12.1888 23.0885V9.86935H2.52214ZM4.0108 39.3334C2.92814 39.3334 2.00658 38.9531 1.24614 38.1927C0.485691 37.4322 0.105469 36.5115 0.105469 35.4304V9.09119C0.105469 8.62074 0.180385 8.17769 0.330219 7.76202C0.480052 7.34635 0.705608 6.96371 1.00689 6.6141L4.77205 2.09494C5.12166 1.62288 5.55908 1.26683 6.0843 1.02677C6.60952 0.786715 7.17261 0.666687 7.77355 0.666687H31.0122C31.6115 0.666687 32.1819 0.786715 32.7232 1.02677C33.2645 1.26683 33.71 1.62208 34.0596 2.09252L37.8707 6.70835C38.172 7.05796 38.3975 7.44866 38.5474 7.88044C38.6972 8.3106 38.7721 8.76171 38.7721 9.23377V35.4304C38.7721 36.5099 38.3919 37.4306 37.6315 38.1927C36.871 38.9531 35.9503 39.3334 34.8692 39.3334H4.0108ZM3.44047 7.45269H35.3888L32.1746 3.59085C32.0184 3.43619 31.8395 3.31294 31.6381 3.2211C31.4367 3.12927 31.2273 3.08335 31.0098 3.08335H7.81947C7.60358 3.08335 7.39414 3.13008 7.19114 3.22352C6.98814 3.31696 6.81091 3.44102 6.65947 3.59569L3.44047 7.45269ZM14.6031 9.86935V22.3224L19.4364 19.9058L24.2697 22.3224V9.87177L14.6031 9.86935Z" fill="#171414"/>
</svg>
