<svg width="31" height="26" viewBox="0 0 31 26" fill="none" xmlns="http://www.w3.org/2000/svg">
<path d="M2.73145 0.5H28.8115C29.2838 0.5 29.6349 0.564896 29.874 0.661133C30.1111 0.756581 30.2057 0.867707 30.2422 0.948242C30.2768 1.02491 30.2963 1.1582 30.207 1.38184C30.1155 1.61075 29.9197 1.90363 29.5762 2.24609L21.752 10.0459C20.9596 10.8359 20.2766 11.8604 19.791 12.877C19.3094 13.8853 18.9971 14.9385 18.9971 15.7861V21.9756L12.5459 25.1914V16.7139C12.5458 15.6112 12.2467 14.339 11.7637 13.1592C11.2806 11.9792 10.5959 10.8484 9.79102 10.0459L1.9668 2.24609C1.62327 1.90363 1.42745 1.61075 1.33594 1.38184C1.24662 1.1582 1.26617 1.02491 1.30078 0.948242C1.33724 0.867706 1.43185 0.756581 1.66895 0.661133C1.90809 0.564896 2.25913 0.5 2.73145 0.5Z" fill="#171414" stroke="#171414"/>
</svg>
