<svg width="48" height="42" viewBox="0 0 48 42" fill="none" xmlns="http://www.w3.org/2000/svg">
<path d="M3.55646 37.3579L6.57189 38.5958V18.6347L1.10362 31.5884C0.180987 33.8432 1.23864 36.4295 3.55646 37.3579ZM47.4376 29.1789L36.2761 2.76316C35.9464 1.96194 35.3849 1.27321 34.661 0.782124C33.9371 0.291034 33.0825 0.0191192 32.203 0C31.6179 0 31.0103 0.0884213 30.4252 0.331579L13.8404 7.07368C13.0399 7.40738 12.3537 7.95961 11.8631 8.66486C11.3725 9.37012 11.0981 10.1988 11.0725 11.0526C11.05 11.6053 11.1625 12.2463 11.3651 12.8211L22.6166 39.2368C23.2692 40.9611 24.9345 41.9779 26.6897 42C27.2748 42 27.8599 41.8895 28.4225 41.6684L44.9848 34.9263C46.0857 34.4834 46.9626 33.6292 47.4225 32.5515C47.8825 31.4737 47.8879 30.2606 47.4376 29.1789ZM15.5957 13.2632C14.9988 13.2632 14.4265 13.0303 14.0044 12.6157C13.5824 12.2012 13.3453 11.6389 13.3453 11.0526C13.3453 10.4664 13.5824 9.90411 14.0044 9.48955C14.4265 9.075 14.9988 8.8421 15.5957 8.8421C16.8333 8.8421 17.846 9.83684 17.846 11.0526C17.846 12.2684 16.8333 13.2632 15.5957 13.2632ZM11.095 37.5789C11.095 38.7515 11.5692 39.876 12.4132 40.7051C13.2573 41.5342 14.402 42 15.5957 42H18.8586L11.095 23.5642V37.5789Z" fill="#171414"/>
</svg>
