<svg width="45" height="44" viewBox="0 0 45 44" fill="none" xmlns="http://www.w3.org/2000/svg">
<path d="M33.9092 17.2277L32.3184 15.6369C31.8962 15.215 31.6589 14.6426 31.6587 14.0458C31.6585 13.4489 31.8954 12.8764 32.3173 12.4542C32.7392 12.032 33.3116 11.7947 33.9084 11.7945C34.5053 11.7942 35.0778 12.0311 35.5 12.4531L37.0908 14.0438L40.2724 10.8623L33.9092 4.49913L5.27062 33.1377L11.6338 39.5009L14.8153 36.3193L11.6338 33.1377C11.2239 32.7134 10.9971 32.145 11.0022 31.555C11.0073 30.9651 11.244 30.4008 11.6612 29.9836C12.0783 29.5664 12.6427 29.3298 13.2326 29.3246C13.8226 29.3195 14.391 29.5463 14.8153 29.9562L18.0014 33.1377L21.183 29.9562L19.5922 28.3631C19.1921 27.9371 18.9735 27.3722 18.9826 26.7879C18.9917 26.2036 19.2277 25.6458 19.6408 25.2324C20.0539 24.819 20.6115 24.5826 21.1958 24.5731C21.7801 24.5636 22.3452 24.7818 22.7715 25.1816L24.3623 26.7724L27.5438 23.5908L24.3623 20.4092C23.9524 19.9849 23.7256 19.4165 23.7307 18.8265C23.7359 18.2366 23.9725 17.6722 24.3897 17.2551C24.8069 16.8379 25.3712 16.6012 25.9611 16.5961C26.5511 16.591 27.1195 16.8178 27.5438 17.2277L30.7277 20.4092L33.9092 17.2277ZM2.08905 29.9562L30.7277 1.31757C31.5715 0.473929 32.716 0 33.9092 0C35.1025 0 36.2469 0.473929 37.0908 1.31757L43.4539 7.6807C44.2976 8.52459 44.7715 9.669 44.7715 10.8623C44.7715 12.0555 44.2976 13.1999 43.4539 14.0438L14.8153 42.6824C13.9714 43.5261 12.827 44 11.6338 44C10.4405 44 9.29608 43.5261 8.45218 42.6824L2.08905 36.3193C1.24541 35.4754 0.771484 34.331 0.771484 33.1377C0.771484 31.9445 1.24541 30.8001 2.08905 29.9562Z" fill="#171414"/>
</svg>
