<svg width="44" height="40" viewBox="0 0 44 40" fill="none" xmlns="http://www.w3.org/2000/svg">
<path d="M0.771484 40V35.7895H20.1215V12.2632C19.1898 11.9474 18.3836 11.4561 17.7027 10.7895C17.0219 10.1228 16.5202 9.33334 16.1977 8.42106H9.37148L15.8215 23.1579C15.8215 24.9123 15.0869 26.4035 13.6177 27.6316C12.1486 28.8597 10.3748 29.4737 8.29648 29.4737C6.21815 29.4737 4.4444 28.8597 2.97523 27.6316C1.50607 26.4035 0.771484 24.9123 0.771484 23.1579L7.22148 8.42106H2.92148V4.21053H16.1977C16.6277 2.98246 17.3982 1.97404 18.509 1.18527C19.6198 0.396495 20.874 0.00140723 22.2715 3.72613e-06C23.669 -0.00139978 24.9232 0.393688 26.034 1.18527C27.1448 1.97685 27.9152 2.98527 28.3452 4.21053H41.6215V8.42106H37.3215L43.7715 23.1579C43.7715 24.9123 43.0369 26.4035 41.5677 27.6316C40.0986 28.8597 38.3248 29.4737 36.2465 29.4737C34.1682 29.4737 32.3944 28.8597 30.9252 27.6316C29.4561 26.4035 28.7215 24.9123 28.7215 23.1579L35.1715 8.42106H28.3452C28.0227 9.33334 27.5211 10.1228 26.8402 10.7895C26.1594 11.4561 25.3532 11.9474 24.4215 12.2632V35.7895H43.7715V40H0.771484ZM32.2152 23.1579H40.2777L36.2465 14L32.2152 23.1579ZM4.26523 23.1579H12.3277L8.29648 14L4.26523 23.1579ZM22.2715 8.42106C22.8807 8.42106 23.3916 8.21895 23.8044 7.81474C24.2172 7.41053 24.4229 6.91088 24.4215 6.31579C24.4201 5.72071 24.2137 5.22106 23.8023 4.81685C23.3909 4.41263 22.8807 4.21053 22.2715 4.21053C21.6623 4.21053 21.1521 4.41263 20.7407 4.81685C20.3293 5.22106 20.1229 5.72071 20.1215 6.31579C20.1201 6.91088 20.3265 7.41123 20.7407 7.81684C21.1549 8.22246 21.6652 8.42386 22.2715 8.42106Z" fill="#171414"/>
</svg>
