<svg width="36" height="36" viewBox="0 0 36 36" fill="none" xmlns="http://www.w3.org/2000/svg">
<path d="M35.4072 32.579L27.5015 24.6703C29.8719 21.5815 30.9785 17.7068 30.597 13.832C30.2155 9.95734 28.3743 6.37283 25.4469 3.80565C22.5196 1.23847 18.7253 -0.119142 14.8338 0.00821363C10.9422 0.135569 7.24485 1.73835 4.49164 4.49144C1.73843 7.24452 0.135575 10.9417 0.00821401 14.8331C-0.119147 18.7245 1.23853 22.5186 3.80582 25.4458C6.37312 28.373 9.9578 30.2141 13.8327 30.5956C17.7076 30.9771 21.5825 29.8705 24.6714 27.5002L32.5839 35.4139C32.7697 35.5997 32.9903 35.7471 33.2331 35.8477C33.4759 35.9482 33.7361 36 33.9989 36C34.2617 36 34.5219 35.9482 34.7647 35.8477C35.0075 35.7471 35.2281 35.5997 35.4139 35.4139C35.5997 35.2281 35.7471 35.0075 35.8477 34.7647C35.9482 34.5219 36 34.2617 36 33.999C36 33.7362 35.9482 33.476 35.8477 33.2332C35.7471 32.9904 35.5997 32.7698 35.4139 32.584L35.4072 32.579ZM4.02891 15.3483C4.02891 13.1095 4.69283 10.921 5.9367 9.05948C7.18056 7.19799 8.94852 5.74713 11.017 4.89038C13.0855 4.03363 15.3616 3.80946 17.5575 4.24623C19.7533 4.683 21.7704 5.76108 23.3535 7.34416C24.9367 8.92723 26.0148 10.9442 26.4516 13.14C26.8884 15.3357 26.6642 17.6117 25.8074 19.6801C24.9506 21.7485 23.4997 23.5164 21.6381 24.7602C19.7765 26.004 17.5879 26.6679 15.349 26.6679C12.3477 26.6648 9.47016 25.4712 7.3479 23.349C5.22564 21.2269 4.032 18.3495 4.02891 15.3483Z" fill="#171414"/>
</svg>
