<svg width="18" height="19" viewBox="0 0 18 19" fill="none" xmlns="http://www.w3.org/2000/svg">
<path d="M17.7036 16.7895L13.7507 12.8352C14.9359 11.2908 15.4893 9.35338 15.2985 7.41602C15.1077 5.47867 14.1871 3.68641 12.7235 2.40282C11.2598 1.11923 9.36266 0.440429 7.41689 0.504107C5.47112 0.567784 3.62243 1.36918 2.24582 2.74572C0.869217 4.12226 0.0677876 5.97087 0.00410701 7.91655C-0.0595736 9.86223 0.619263 11.7593 1.90291 13.2229C3.18656 14.6865 4.9789 15.607 6.91634 15.7978C8.85379 15.9886 10.7913 15.4352 12.3357 14.2501L16.2919 18.207C16.3848 18.2999 16.4951 18.3736 16.6165 18.4238C16.7379 18.4741 16.868 18.5 16.9994 18.5C17.1308 18.5 17.2609 18.4741 17.3823 18.4238C17.5037 18.3736 17.614 18.2999 17.7069 18.207C17.7999 18.114 17.8736 18.0038 17.9238 17.8824C17.9741 17.761 18 17.6309 18 17.4995C18 17.3681 17.9741 17.238 17.9238 17.1166C17.8736 16.9952 17.7999 16.8849 17.7069 16.792L17.7036 16.7895ZM2.01446 8.17415C2.01446 7.05475 2.34641 5.96049 2.96835 5.02974C3.59028 4.09899 4.47426 3.37357 5.5085 2.94519C6.54274 2.51681 7.68079 2.40473 8.77873 2.62312C9.87667 2.8415 10.8852 3.38054 11.6768 4.17208C12.4683 4.96361 13.0074 5.97209 13.2258 7.06998C13.4442 8.16787 13.3321 9.30587 12.9037 10.3401C12.4753 11.3742 11.7499 12.2582 10.8191 12.8801C9.88827 13.502 8.79396 13.8339 7.67451 13.8339C6.17384 13.8324 4.73508 13.2356 3.67395 12.1745C2.61282 11.1134 2.016 9.67475 2.01446 8.17415Z" fill="white"/>
</svg>
