<svg width="40" height="40" viewBox="0 0 40 40" fill="none" xmlns="http://www.w3.org/2000/svg">
<path d="M13.8499 28.1321C9.98647 28.1321 6.71189 26.79 4.02617 24.1059C1.34206 21.4234 0 18.1496 0 14.2846C0 10.4195 1.34206 7.14494 4.02617 4.46082C6.71028 1.77671 9.98486 0.435463 13.8499 0.437074C17.715 0.438685 20.9888 1.78074 23.6713 4.46324C26.3538 7.14574 27.6958 10.4195 27.6974 14.2846C27.6974 15.9634 27.4002 17.5882 26.8057 19.159C26.2112 20.7298 25.4298 22.0735 24.4615 23.19L38.7416 37.4652C38.9671 37.6908 39.088 37.9687 39.1041 38.299C39.1186 38.626 38.9978 38.9185 38.7416 39.1762C38.4838 39.434 38.1986 39.5629 37.8861 39.5629C37.5735 39.5629 37.2884 39.434 37.0306 39.1762L22.7529 24.8986C21.5446 25.9281 20.155 26.7248 18.5842 27.2887C17.0133 27.8525 15.4344 28.1345 13.8475 28.1345M13.8475 25.7178C17.0536 25.7178 19.7611 24.6142 21.9699 22.407C24.1771 20.1998 25.2808 17.4923 25.2808 14.2846C25.2808 11.0769 24.1779 8.37019 21.9723 6.16457C19.7667 3.95896 17.0601 2.85535 13.8523 2.85374C10.6446 2.85374 7.93714 3.95735 5.72992 6.16457C3.52269 8.3718 2.41828 11.0785 2.41667 14.2846C2.41506 17.4907 3.51867 20.1974 5.7275 22.4046C7.93633 24.6118 10.643 25.7154 13.8475 25.7154" fill="#171414"/>
</svg>
