<svg width="43" height="42" viewBox="0 0 43 42" fill="none" xmlns="http://www.w3.org/2000/svg">
<path d="M42 20.9989H14.6187M4.95373 20.9989H1M4.95373 20.9989C4.95373 19.7159 5.46275 18.4854 6.3688 17.5782C7.27485 16.671 8.50373 16.1613 9.78508 16.1613C11.0664 16.1613 12.2953 16.671 13.2014 17.5782C14.1074 18.4854 14.6164 19.7159 14.6164 20.9989C14.6164 22.2819 14.1074 23.5123 13.2014 24.4196C12.2953 25.3268 11.0664 25.8364 9.78508 25.8364C8.50373 25.8364 7.27485 25.3268 6.3688 24.4196C5.46275 23.5123 4.95373 22.2819 4.95373 20.9989ZM42 35.6602H29.2612M29.2612 35.6602C29.2612 36.9435 28.7509 38.1754 27.8447 39.0828C26.9384 39.9902 25.7093 40.5 24.4276 40.5C23.1463 40.5 21.9174 39.9881 21.0113 39.0809C20.1053 38.1737 19.5963 36.9432 19.5963 35.6602M29.2612 35.6602C29.2612 34.3769 28.7509 33.1473 27.8447 32.2399C26.9384 31.3325 25.7093 30.8227 24.4276 30.8227C23.1463 30.8227 21.9174 31.3323 21.0113 32.2396C20.1053 33.1468 19.5963 34.3772 19.5963 35.6602M19.5963 35.6602H1M42 6.33755H35.1187M25.4537 6.33755H1M25.4537 6.33755C25.4537 5.05455 25.9627 3.8241 26.8688 2.91689C27.7749 2.00967 29.0037 1.5 30.2851 1.5C30.9195 1.5 31.5478 1.62513 32.134 1.86824C32.7201 2.11135 33.2527 2.46768 33.7014 2.91689C34.15 3.36609 34.5059 3.89938 34.7487 4.4863C34.9915 5.07322 35.1164 5.70228 35.1164 6.33755C35.1164 6.97283 34.9915 7.60189 34.7487 8.18881C34.5059 8.77572 34.15 9.30901 33.7014 9.75822C33.2527 10.2074 32.7201 10.5638 32.134 10.8069C31.5478 11.05 30.9195 11.1751 30.2851 11.1751C29.0037 11.1751 27.7749 10.6654 26.8688 9.75822C25.9627 8.851 25.4537 7.62055 25.4537 6.33755Z" stroke="#171414" stroke-width="1.5" stroke-miterlimit="10" stroke-linecap="round"/>
</svg>
