<svg width="55" height="54" viewBox="0 0 55 54" fill="none" xmlns="http://www.w3.org/2000/svg">
<path d="M21.5832 49.5L20.6832 42.3C20.1957 42.1125 19.7367 41.8875 19.3062 41.625C18.8757 41.3625 18.4535 41.0812 18.0395 40.7812L11.3457 43.5938L5.1582 32.9062L10.952 28.5188C10.9145 28.2563 10.8957 28.0035 10.8957 27.7605V26.2418C10.8957 25.9972 10.9145 25.7437 10.952 25.4812L5.1582 21.0938L11.3457 10.4062L18.0395 13.2188C18.452 12.9187 18.8832 12.6375 19.3332 12.375C19.7832 12.1125 20.2332 11.8875 20.6832 11.7L21.5832 4.5H33.9582L34.8582 11.7C35.3457 11.8875 35.8055 12.1125 36.2375 12.375C36.6695 12.6375 37.091 12.9187 37.502 13.2188L44.1957 10.4062L50.3832 21.0938L44.5895 25.4812C44.627 25.7437 44.6457 25.9972 44.6457 26.2418V27.7582C44.6457 28.0028 44.6082 28.2563 44.5332 28.5188L50.327 32.9062L44.1395 43.5938L37.502 40.7812C37.0895 41.0812 36.6582 41.3625 36.2082 41.625C35.7582 41.8875 35.3082 42.1125 34.8582 42.3L33.9582 49.5H21.5832ZM27.8832 34.875C30.0582 34.875 31.9145 34.1063 33.452 32.5688C34.9895 31.0312 35.7582 29.175 35.7582 27C35.7582 24.825 34.9895 22.9688 33.452 21.4312C31.9145 19.8937 30.0582 19.125 27.8832 19.125C25.6707 19.125 23.8047 19.8937 22.2852 21.4312C20.7657 22.9688 20.0067 24.825 20.0082 27C20.0097 29.175 20.7695 31.0312 22.2875 32.5688C23.8055 34.1063 25.6707 34.875 27.8832 34.875Z" fill="#171414"/>
</svg>
