<svg width="58" height="58" viewBox="0 0 58 58" fill="none" xmlns="http://www.w3.org/2000/svg">
<path d="M29.2715 3.625L7.89648 10.875V32.625C7.89648 44.6385 17.4651 54.375 29.2715 54.375C41.0778 54.375 50.6465 44.6385 50.6465 32.625V10.875L29.2715 3.625ZM46.6387 32.625C46.6387 42.3842 38.8624 50.2969 29.2715 50.2969C19.6806 50.2969 11.9043 42.3842 11.9043 32.625V13.9336L29.2715 7.70312L46.6387 13.9336V32.625Z" fill="#171414"/>
<path d="M21.8341 26.91C21.6484 26.7201 21.4276 26.5695 21.1845 26.4667C20.9414 26.3639 20.6807 26.3109 20.4174 26.3109C20.1542 26.3109 19.8935 26.3639 19.6504 26.4667C19.4073 26.5695 19.1865 26.7201 19.0008 26.91C18.8142 27.099 18.6662 27.3236 18.5651 27.571C18.4641 27.8183 18.4121 28.0836 18.4121 28.3515C18.4121 28.6193 18.4641 28.8846 18.5651 29.132C18.6662 29.3793 18.8142 29.604 19.0008 29.793L26.2037 37.1223L26.3206 37.2412C26.4963 37.4203 26.705 37.5624 26.9347 37.6594C27.1644 37.7563 27.4107 37.8062 27.6593 37.8062C27.908 37.8062 28.1543 37.7563 28.384 37.6594C28.6137 37.5624 28.8224 37.4203 28.9981 37.2412L41.439 24.582C41.615 24.4033 41.7546 24.1909 41.8499 23.9572C41.9452 23.7234 41.9942 23.4729 41.9942 23.2198C41.9942 22.9668 41.9452 22.7162 41.8499 22.4825C41.7546 22.2487 41.615 22.0364 41.439 21.8576L41.2831 21.699C41.1074 21.5199 40.8988 21.3778 40.6691 21.2809C40.4393 21.1839 40.1931 21.134 39.9444 21.134C39.6957 21.134 39.4495 21.1839 39.2197 21.2809C38.99 21.3778 38.7814 21.5199 38.6057 21.699L27.6566 32.8346L21.8341 26.91Z" fill="#171414"/>
</svg>
