<svg width="35" height="33" viewBox="0 0 35 33" fill="none" xmlns="http://www.w3.org/2000/svg">
<path d="M17.2959 1.08203C17.4456 0.621376 18.0974 0.621376 18.2471 1.08203L21.5615 11.2832C21.7623 11.9012 22.3385 12.3193 22.9883 12.3193H33.7148C34.1992 12.3193 34.4006 12.9399 34.0088 13.2246L25.3311 19.5293C24.8053 19.9113 24.5853 20.588 24.7861 21.2061L28.1006 31.4082C28.2499 31.8687 27.7228 32.2514 27.3311 31.9668L18.6533 25.6621C18.1276 25.2801 17.4154 25.2801 16.8896 25.6621L8.21191 31.9668C7.82016 32.2514 7.2931 31.8687 7.44238 31.4082L10.7568 21.2061C10.9576 20.588 10.7376 19.9113 10.2119 19.5293L1.53418 13.2246C1.14232 12.9399 1.34376 12.3193 1.82812 12.3193H12.5547C13.2045 12.3193 13.7806 11.9012 13.9814 11.2832L17.2959 1.08203Z" fill="#171414" stroke="#171414"/>
</svg>
