<svg width="35" height="33" viewBox="0 0 35 33" fill="none" xmlns="http://www.w3.org/2000/svg">
<path d="M17.5 0C26.8889 0 34.4999 7.38729 34.5 16.5C34.5 25.6128 26.8889 33 17.5 33C8.11114 32.9999 0.5 25.6127 0.5 16.5C0.500096 7.38734 8.1112 9.30504e-05 17.5 0ZM24.3564 9.625C23.7186 9.63638 22.7396 9.97432 18.0312 11.915C16.3818 12.5949 13.0844 14.0022 8.14062 16.1367C7.33814 16.453 6.91816 16.7629 6.87988 17.0654C6.80682 17.6461 7.6502 17.8269 8.71191 18.1689C9.57778 18.4479 10.7431 18.7741 11.3486 18.7871C11.8978 18.7987 12.5109 18.5747 13.1875 18.1143C17.8066 15.0244 20.1911 13.4624 20.3408 13.4287C20.4463 13.405 20.5924 13.375 20.6914 13.4619C20.7906 13.5493 20.781 13.7154 20.7705 13.7598C20.6842 14.1164 16.3485 18.0242 16.0977 18.2822C15.1435 19.2644 14.0581 19.8656 15.7324 20.959C17.1812 21.9051 18.0241 22.509 19.5166 23.4785C20.4703 24.0981 21.2185 24.8328 22.2031 24.7432C22.6563 24.7018 23.1246 24.2789 23.3623 23.0195C23.9241 20.0431 25.028 13.5948 25.2832 10.9375C25.3056 10.7047 25.2775 10.4062 25.2549 10.2754C25.2323 10.1446 25.185 9.95808 25.0137 9.82031C24.8105 9.6572 24.4966 9.62267 24.3564 9.625Z" fill="white"/>
</svg>
