<svg width="48" height="49" viewBox="0 0 48 49" fill="none" xmlns="http://www.w3.org/2000/svg">
<path d="M24 0.5C37.2548 0.5 48 11.2452 48 24.5C48 37.7548 37.2548 48.5 24 48.5C10.7452 48.5 0 37.7548 0 24.5C0 11.2452 10.7452 0.5 24 0.5ZM33.6797 14.5C32.7792 14.5165 31.3971 15.0068 24.749 17.8301C22.4204 18.819 17.7664 20.866 10.7871 23.9707C9.65396 24.4308 9.05999 24.8812 9.00586 25.3213C8.9021 26.1664 10.0944 26.4301 11.5938 26.9277C12.8161 27.3334 14.4607 27.8073 15.3154 27.8262C16.0906 27.8431 16.956 27.5173 17.9111 26.8477C24.4318 22.3535 27.7981 20.0814 28.0098 20.0322C28.1589 19.9977 28.3659 19.954 28.5059 20.0811C28.6458 20.2081 28.632 20.4491 28.6172 20.5137C28.4976 21.0306 22.373 26.7189 22.0205 27.0928C20.6734 28.5213 19.1412 29.395 21.5049 30.9854C23.55 32.3614 24.7406 33.2392 26.8477 34.6494C28.1941 35.5506 29.2495 36.6197 30.6396 36.4893C31.2793 36.4292 31.9407 35.8149 32.2764 33.9834C33.0695 29.6544 34.6279 20.2746 34.9883 16.4092C35.0198 16.0705 34.9801 15.6365 34.9482 15.4463C34.9163 15.2561 34.8495 14.9848 34.6074 14.7842C34.3206 14.5468 33.8777 14.4966 33.6797 14.5Z" fill="white"/>
</svg>
