<svg width="59" height="58" viewBox="0 0 59 58" fill="none" xmlns="http://www.w3.org/2000/svg">
<path d="M46.084 36.25C46.084 46.2607 39.7821 52.5625 29.7715 52.5625C19.7608 52.5625 13.459 46.2607 13.459 36.25C13.459 25.5076 25.153 11.0053 28.7395 6.81049C28.8671 6.66145 29.0255 6.54181 29.2037 6.45977C29.382 6.37774 29.5758 6.33527 29.7721 6.33527C29.9683 6.33527 30.1621 6.37774 30.3404 6.45977C30.5186 6.54181 30.677 6.66145 30.8046 6.81049C34.39 11.0053 46.084 25.5076 46.084 36.25Z" stroke="#171414" stroke-width="2" stroke-miterlimit="10"/>
<path d="M39.7402 37.1562C39.7402 39.3194 38.8809 41.394 37.3513 42.9236C35.8217 44.4532 33.7472 45.3125 31.584 45.3125" stroke="#171414" stroke-width="2" stroke-linecap="round" stroke-linejoin="round"/>
</svg>
