<svg width="25" height="38" viewBox="0 0 25 38" fill="none" xmlns="http://www.w3.org/2000/svg">
<path fill-rule="evenodd" clip-rule="evenodd" d="M20.3307 1.11914C17.7422 0.696539 15.1228 0.489577 12.4999 0.500404C9.3099 0.500404 6.67993 0.780352 4.66899 1.11914C2.63122 1.4615 1.61322 1.63268 0.761617 2.67758C-0.0882018 3.72249 -0.0434747 4.8512 0.0459799 7.10862C0.355493 14.8616 2.03366 24.5475 11.158 25.4034V31.7049H8.59963C8.18618 31.7051 7.78559 31.8481 7.46595 32.1094C7.14631 32.3708 6.92735 32.7344 6.84632 33.1385L6.50639 34.8253H1.7653C1.40942 34.8253 1.06813 34.9662 0.816488 35.217C0.564848 35.4678 0.423478 35.808 0.423478 36.1627C0.423478 36.5173 0.564848 36.8575 0.816488 37.1083C1.06813 37.3591 1.40942 37.5 1.7653 37.5H23.2344C23.5903 37.5 23.9316 37.3591 24.1832 37.1083C24.4349 36.8575 24.5762 36.5173 24.5762 36.1627C24.5762 35.808 24.4349 35.4678 24.1832 35.217C23.9316 34.9662 23.5903 34.8253 23.2344 34.8253H18.4933L18.1534 33.1385C18.0723 32.7344 17.8534 32.3708 17.5338 32.1094C17.2141 31.8481 16.8135 31.7051 16.4001 31.7049H13.8417V25.4034C22.966 24.5475 24.646 14.8634 24.9537 7.10862C25.0432 4.8512 25.0897 3.72071 24.2381 2.67758C23.3865 1.63268 22.3685 1.4615 20.3307 1.11914Z" fill="#171414"/>
</svg>
