<svg width="27" height="14" viewBox="0 0 27 14" fill="none" xmlns="http://www.w3.org/2000/svg">
<path d="M11.424 13.1155H6.1155C4.4235 13.1155 2.9815 12.5195 1.7895 11.3275C0.597501 10.1355 0.00100126 8.693 1.25523e-06 7C-0.000998745 5.307 0.595501 3.8645 1.7895 2.6725C2.9835 1.4805 4.4255 0.883996 6.1155 0.882996H11.424V2.383H6.1155C4.8455 2.383 3.759 2.835 2.856 3.739C1.952 4.644 1.5 5.731 1.5 7C1.5 8.269 1.952 9.3555 2.856 10.2595C3.76 11.1635 4.8465 11.6155 6.1155 11.6155H11.424V13.1155ZM8.25 7.75V6.25H18.75V7.75H8.25ZM15.5775 13.1155V11.6155H20.8845C22.1545 11.6155 23.241 11.1635 24.144 10.2595C25.048 9.3555 25.5 8.269 25.5 7C25.5 5.731 25.048 4.6445 24.144 3.7405C23.24 2.8365 22.1535 2.3845 20.8845 2.3845H15.5775V0.884495H20.8845C22.5765 0.884495 24.019 1.4805 25.212 2.6725C26.405 3.8645 27.001 5.307 27 7C26.999 8.693 26.4025 10.1355 25.2105 11.3275C24.0185 12.5195 22.5765 13.116 20.8845 13.117L15.5775 13.1155Z" fill="#2F855A"/>
</svg>
