<svg width="60" height="28" viewBox="0 0 60 28" fill="none" xmlns="http://www.w3.org/2000/svg">
<path d="M25.3867 27.4967H13.59C9.83 27.4967 6.62556 26.1813 3.97667 23.5506C1.32778 20.9199 0.00222501 17.7364 2.7894e-06 14C-0.00221943 10.2636 1.32334 7.08006 3.97667 4.44936C6.63 1.81866 9.83445 0.502207 13.59 0.5H25.3867V3.81045H13.59C10.7678 3.81045 8.35333 4.808 6.34667 6.80309C4.33778 8.80039 3.33334 11.1994 3.33334 14C3.33334 16.8006 4.33778 19.1985 6.34667 21.1936C8.35556 23.1887 10.77 24.1862 13.59 24.1862H25.3867V27.4967ZM18.3333 15.6552V12.3448H41.6667V15.6552H18.3333ZM34.6167 27.4967V24.1862H46.41C49.2322 24.1862 51.6467 23.1887 53.6533 21.1936C55.6622 19.1985 56.6667 16.8006 56.6667 14C56.6667 11.1994 55.6622 8.8015 53.6533 6.8064C51.6444 4.8113 49.23 3.81376 46.41 3.81376H34.6167V0.50331H46.41C50.17 0.50331 53.3756 1.81866 56.0267 4.44936C58.6778 7.08006 60.0022 10.2636 60 14C59.9978 17.7364 58.6722 20.9199 56.0233 23.5506C53.3744 26.1813 50.17 27.4978 46.41 27.5L34.6167 27.4967Z" fill="#171414"/>
</svg>
