<svg width="30" height="30" viewBox="0 0 30 30" fill="none" xmlns="http://www.w3.org/2000/svg">
<g clip-path="url(#clip0_2915_3047)">
<path fill-rule="evenodd" clip-rule="evenodd" d="M21.5625 26.2524C26.2312 26.2524 30 24.3774 30 21.5649V3.75244C30 1.87744 26.25 0.00244141 21.5625 0.00244141C16.875 0.00244141 13.125 1.87744 13.125 3.75244V10.3149C15.3187 11.2337 17.1938 12.7712 18.525 14.7212C19.4438 14.9012 20.4563 15.0006 21.5625 15.0006C24.0188 15.0006 26.0625 14.5112 27.525 13.7143C27.7326 13.6002 27.9347 13.4763 28.1306 13.3431V15.9306C28.1306 16.3712 27.78 17.0556 26.6269 17.6856C25.5094 18.2949 23.7956 18.7431 21.5644 18.7431C21.1181 18.7431 20.6931 18.7262 20.2894 18.6924C20.4394 19.3087 20.5394 19.9399 20.5894 20.5862C20.9056 20.6037 21.2306 20.6124 21.5644 20.6124C24.0206 20.6124 26.0644 20.1231 27.5269 19.3262C27.7345 19.2121 27.9366 19.0882 28.1325 18.9549V21.5424C28.1325 21.9849 27.8531 22.6412 26.6494 23.2899C25.4644 23.9274 23.6869 24.3549 21.5681 24.3549C21.1369 24.3549 20.7194 24.3374 20.3156 24.3024C20.1715 24.9257 19.9777 25.5364 19.7362 26.1287C20.3263 26.1949 20.9362 26.2281 21.5662 26.2281L21.5625 26.2524ZM26.625 12.0774C27.7781 11.4474 28.1287 10.7631 28.1287 10.3224V7.73494C27.935 7.86744 27.7331 7.99119 27.5231 8.10619C26.0644 8.90307 24.0169 9.39244 21.5606 9.39244C19.1044 9.39244 17.0606 8.90307 15.5981 8.10619C15.3905 7.99208 15.1884 7.86819 14.9925 7.73494V10.3224C14.9925 10.7631 15.3431 11.4474 16.4963 12.0756C17.6138 12.6849 19.3275 13.1331 21.5588 13.1331C23.79 13.1331 25.4963 12.6849 26.6213 12.0756L26.625 12.0774ZM15 4.68994C15 4.14994 15.2344 3.63057 15.6712 3.31369C15.9094 3.14119 16.1681 2.96869 16.3725 2.87494C16.8844 2.63869 19.4475 1.87557 21.5662 1.87557C23.685 1.87557 25.5225 2.30119 26.76 2.87494C26.9925 2.98182 27.2494 3.14869 27.4763 3.31369C27.9094 3.62682 28.1325 4.14244 28.1325 4.67682V4.68807C28.1325 5.12869 27.7819 5.81307 26.6287 6.44307C25.5112 7.05244 23.7975 7.50057 21.5662 7.50057C19.335 7.50057 17.6288 7.05057 16.5038 6.44307C15.3506 5.81494 15 5.12869 15 4.68994Z" fill="#919191"/>
<path fill-rule="evenodd" clip-rule="evenodd" d="M16.875 21.5649C16.875 26.2337 13.1062 30.0024 8.4375 30.0024C3.76875 30.0024 0 26.2337 0 21.5649C0 16.8962 3.76875 13.1274 8.4375 13.1274C13.1062 13.1274 16.875 16.8962 16.875 21.5649ZM15 21.5649C15 25.1837 12.0562 28.1274 8.4375 28.1274C4.81875 28.1274 1.875 25.1837 1.875 21.5649C1.875 17.9462 4.81875 15.0024 8.4375 15.0024C12.0562 15.0024 15 17.9462 15 21.5649Z" fill="#919191"/>
</g>
<defs>
<clipPath id="clip0_2915_3047">
<rect width="30" height="30" fill="white" transform="translate(0 0.00244141)"/>
</clipPath>
</defs>
</svg>
