<svg width="36" height="36" viewBox="0 0 36 36" fill="none" xmlns="http://www.w3.org/2000/svg">
<path d="M28.125 22.3774C28.125 28.4183 24.2135 32.2211 18 32.2211C11.7865 32.2211 7.875 28.4183 7.875 22.3774C7.875 15.8949 15.1334 7.1435 17.3595 4.61215C17.4387 4.52221 17.537 4.45002 17.6476 4.40051C17.7582 4.35101 17.8786 4.32538 18.0004 4.32538C18.1221 4.32538 18.2425 4.35101 18.3531 4.40051C18.4637 4.45002 18.562 4.52221 18.6412 4.61215C20.8666 7.1435 28.125 15.8949 28.125 22.3774Z" stroke="#7A7A7A" stroke-opacity="0.6" stroke-width="2" stroke-miterlimit="10"/>
<path d="M24.1875 22.9243C24.1875 24.2296 23.6541 25.4815 22.7047 26.4045C21.7553 27.3276 20.4677 27.8461 19.125 27.8461" stroke="#7A7A7A" stroke-opacity="0.6" stroke-width="2" stroke-linecap="round" stroke-linejoin="round"/>
</svg>
