<svg width="28" height="27" viewBox="0 0 28 27" fill="none" xmlns="http://www.w3.org/2000/svg">
<path d="M15.125 9.00244H12.875V14.6274H18.5V12.3774H15.125V9.00244Z" fill="#7A7A7A" fill-opacity="0.6"/>
<path d="M22.4353 13.4998C22.4353 10.1776 20.6217 7.27851 17.9364 5.71926V3.37476C17.9364 3.07639 17.8178 2.79024 17.6069 2.57926C17.3959 2.36828 17.1097 2.24976 16.8114 2.24976H10.0614C9.76301 2.24976 9.47686 2.36828 9.26588 2.57926C9.0549 2.79024 8.93638 3.07639 8.93638 3.37476V5.71813C6.251 7.27738 4.4375 10.1776 4.4375 13.4998C4.4385 15.1084 4.87065 16.6874 5.68898 18.0724C6.50731 19.4574 7.68191 20.5978 9.0905 21.3748H8.93638V23.6709C8.93638 23.9692 9.0549 24.2554 9.26588 24.4664C9.47686 24.6774 9.76301 24.7959 10.0614 24.7959H16.8114C17.1097 24.7959 17.3959 24.6774 17.6069 24.4664C17.8178 24.2554 17.9364 23.9692 17.9364 23.6709V21.3748H17.78C19.189 20.5981 20.3641 19.4578 21.1828 18.0728C22.0015 16.6878 22.434 15.1087 22.4353 13.4998ZM13.4352 20.2486C11.6461 20.2465 9.9308 19.5348 8.66578 18.2696C7.40075 17.0043 6.68929 15.2889 6.6875 13.4998C6.68929 11.7106 7.40075 9.99519 8.66578 8.72995C9.9308 7.46471 11.6461 6.75297 13.4352 6.75088C17.159 6.75088 20.1853 9.77826 20.1853 13.4998C20.1835 15.2893 19.4717 17.005 18.2062 18.2704C16.9407 19.5357 15.2248 20.2471 13.4352 20.2486Z" fill="#7A7A7A" fill-opacity="0.6"/>
</svg>
