<svg width="25" height="24" viewBox="0 0 25 24" fill="none" xmlns="http://www.w3.org/2000/svg">
<path d="M17.4502 9.88143L16.7432 9.17443C16.5556 8.98692 16.4501 8.73255 16.45 8.46728C16.4499 8.20201 16.5552 7.94757 16.7427 7.75993C16.9302 7.57229 17.1846 7.46682 17.4499 7.46672C17.7151 7.46663 17.9696 7.57192 18.1572 7.75943L18.8642 8.46643L20.2782 7.05243L17.4502 4.22443L4.72223 16.9524L7.55023 19.7804L8.96423 18.3664L7.55023 16.9524C7.36807 16.7638 7.26728 16.5112 7.26956 16.249C7.27183 15.9868 7.377 15.736 7.56241 15.5506C7.74782 15.3652 7.99863 15.26 8.26083 15.2578C8.52302 15.2555 8.77563 15.3563 8.96423 15.5384L10.3802 16.9524L11.7942 15.5384L11.0872 14.8304C10.9094 14.6411 10.8123 14.39 10.8163 14.1303C10.8203 13.8707 10.9253 13.6227 11.1088 13.439C11.2924 13.2553 11.5403 13.1502 11.8 13.146C12.0596 13.1418 12.3108 13.2388 12.5002 13.4164L13.2072 14.1234L14.6212 12.7094L13.2072 11.2954C13.0251 11.1068 12.9243 10.8542 12.9266 10.592C12.9288 10.3298 13.034 10.079 13.2194 9.89361C13.4048 9.7082 13.6556 9.60303 13.9178 9.60075C14.18 9.59847 14.4326 9.69927 14.6212 9.88143L16.0362 11.2954L17.4502 9.88143ZM3.30823 15.5384L16.0362 2.81043C16.4113 2.43548 16.9199 2.22485 17.4502 2.22485C17.9806 2.22485 18.4892 2.43548 18.8642 2.81043L21.6922 5.63843C22.0672 6.01348 22.2778 6.5221 22.2778 7.05243C22.2778 7.58276 22.0672 8.09137 21.6922 8.46643L8.96423 21.1944C8.58917 21.5694 8.08056 21.78 7.55023 21.78C7.0199 21.78 6.51128 21.5694 6.13623 21.1944L3.30823 18.3664C2.93329 17.9914 2.72266 17.4828 2.72266 16.9524C2.72266 16.4221 2.93329 15.9135 3.30823 15.5384Z" fill="#ABABAB"/>
</svg>
