<svg width="25" height="24" viewBox="0 0 25 24" fill="none" xmlns="http://www.w3.org/2000/svg">
<path d="M3.03056 19.6524L4.37056 20.2124V11.1824L1.94056 17.0424C1.53056 18.0624 2.00056 19.2324 3.03056 19.6524ZM22.5306 15.9524L17.5706 4.00244C17.4241 3.63999 17.1745 3.32842 16.8528 3.10626C16.5312 2.8841 16.1514 2.76109 15.7606 2.75244C15.5006 2.75244 15.2306 2.79244 14.9706 2.90244L7.60056 5.95244C7.24485 6.1034 6.9399 6.35322 6.72188 6.67226C6.50387 6.99131 6.38194 7.36619 6.37056 7.75244C6.36056 8.00244 6.41056 8.29244 6.50056 8.55244L11.5006 20.5024C11.7906 21.2824 12.5306 21.7424 13.3106 21.7524C13.5706 21.7524 13.8306 21.7024 14.0806 21.6024L21.4406 18.5524C21.9298 18.3521 22.3195 17.9657 22.5238 17.4781C22.7282 16.9906 22.7307 16.4418 22.5306 15.9524ZM8.38056 8.75244C8.11535 8.75244 7.86099 8.64708 7.67346 8.45955C7.48592 8.27201 7.38056 8.01766 7.38056 7.75244C7.38056 7.48723 7.48592 7.23287 7.67346 7.04533C7.86099 6.8578 8.11535 6.75244 8.38056 6.75244C8.93056 6.75244 9.38056 7.20244 9.38056 7.75244C9.38056 8.30244 8.93056 8.75244 8.38056 8.75244ZM6.38056 19.7524C6.38056 20.2829 6.59128 20.7916 6.96635 21.1667C7.34142 21.5417 7.85013 21.7524 8.38056 21.7524H9.83056L6.38056 13.4124V19.7524Z" fill="#ABABAB"/>
</svg>
