<svg width="25" height="24" viewBox="0 0 25 24" fill="none" xmlns="http://www.w3.org/2000/svg">
<path d="M9.74922 22.0024L9.34922 18.8024C9.13255 18.7191 8.92855 18.6191 8.73722 18.5024C8.54589 18.3858 8.35822 18.2608 8.17422 18.1274L5.19922 19.3774L2.44922 14.6274L5.02422 12.6774C5.00755 12.5608 4.99922 12.4484 4.99922 12.3404V11.6654C4.99922 11.5568 5.00755 11.4441 5.02422 11.3274L2.44922 9.37744L5.19922 4.62744L8.17422 5.87744C8.35755 5.74411 8.54922 5.61911 8.74922 5.50244C8.94922 5.38577 9.14922 5.28577 9.34922 5.20244L9.74922 2.00244H15.2492L15.6492 5.20244C15.8659 5.28577 16.0702 5.38577 16.2622 5.50244C16.4542 5.61911 16.6416 5.74411 16.8242 5.87744L19.7992 4.62744L22.5492 9.37744L19.9742 11.3274C19.9909 11.4441 19.9992 11.5568 19.9992 11.6654V12.3394C19.9992 12.4481 19.9826 12.5608 19.9492 12.6774L22.5242 14.6274L19.7742 19.3774L16.8242 18.1274C16.6409 18.2608 16.4492 18.3858 16.2492 18.5024C16.0492 18.6191 15.8492 18.7191 15.6492 18.8024L15.2492 22.0024H9.74922ZM12.5492 15.5024C13.5159 15.5024 14.3409 15.1608 15.0242 14.4774C15.7076 13.7941 16.0492 12.9691 16.0492 12.0024C16.0492 11.0358 15.7076 10.2108 15.0242 9.52744C14.3409 8.84411 13.5159 8.50244 12.5492 8.50244C11.5659 8.50244 10.7366 8.84411 10.0612 9.52744C9.38589 10.2108 9.04855 11.0358 9.04922 12.0024C9.04989 12.9691 9.38755 13.7941 10.0622 14.4774C10.7369 15.1608 11.5659 15.5024 12.5492 15.5024Z" fill="#7A7A7A" fill-opacity="0.6"/>
</svg>
