<svg width="25" height="24" viewBox="0 0 25 24" fill="none" xmlns="http://www.w3.org/2000/svg">
<path d="M12.5 2.00244C18.023 2.00244 22.5 6.47944 22.5 12.0024C22.5 17.5254 18.023 22.0024 12.5 22.0024C6.977 22.0024 2.5 17.5254 2.5 12.0024C2.5 6.47944 6.977 2.00244 12.5 2.00244ZM12.5 4.00244C10.3783 4.00244 8.34344 4.8453 6.84315 6.34559C5.34285 7.84588 4.5 9.88071 4.5 12.0024C4.5 14.1242 5.34285 16.159 6.84315 17.6593C8.34344 19.1596 10.3783 20.0024 12.5 20.0024C14.6217 20.0024 16.6566 19.1596 18.1569 17.6593C19.6571 16.159 20.5 14.1242 20.5 12.0024C20.5 9.88071 19.6571 7.84588 18.1569 6.34559C16.6566 4.8453 14.6217 4.00244 12.5 4.00244ZM12.5 6.00244C12.7449 6.00247 12.9813 6.0924 13.1644 6.25516C13.3474 6.41792 13.4643 6.64219 13.493 6.88544L13.5 7.00244V11.5884L16.207 14.2954C16.3863 14.4754 16.4905 14.7169 16.4982 14.9708C16.506 15.2248 16.4168 15.4722 16.2488 15.6627C16.0807 15.8533 15.8464 15.9727 15.5935 15.9968C15.3406 16.0209 15.088 15.9479 14.887 15.7924L14.793 15.7094L11.793 12.7094C11.6376 12.5539 11.5378 12.3514 11.509 12.1334L11.5 12.0024V7.00244C11.5 6.73723 11.6054 6.48287 11.7929 6.29533C11.9804 6.1078 12.2348 6.00244 12.5 6.00244Z" fill="#7A7A7A" fill-opacity="0.6"/>
</svg>
