<svg width="26" height="26" viewBox="0 0 26 26" fill="none" xmlns="http://www.w3.org/2000/svg">
<g clip-path="url(#clip0_2593_5062)">
<path d="M10.2656 24.7837V19.9087H15.7344V24.7837C15.7344 25.1069 15.8578 25.4169 16.0776 25.6455C16.2974 25.874 16.5954 26.0024 16.9062 26.0024C17.2171 26.0024 17.5151 25.874 17.7349 25.6455C17.9547 25.4169 18.0781 25.1069 18.0781 24.7837V19.5024C18.3207 19.3132 18.5176 19.0679 18.6532 18.7858C18.7888 18.5038 18.8594 18.1928 18.8594 17.8774V11.3774C18.8594 11.0621 18.7888 10.7511 18.6532 10.469C18.5176 10.187 18.3207 9.94165 18.0781 9.75244V6.8376C18.3057 6.75302 18.5025 6.59734 18.6417 6.39189C18.7809 6.18644 18.8556 5.94126 18.8556 5.68994C18.8556 5.43862 18.7809 5.19344 18.6417 4.98799C18.5025 4.78254 18.3057 4.62687 18.0781 4.54229V1.22119C18.0781 0.897959 17.9547 0.587965 17.7349 0.359405C17.5151 0.130845 17.2171 0.00244144 16.9062 0.00244144C16.5954 0.00244144 16.2974 0.130845 16.0776 0.359405C15.8578 0.587965 15.7344 0.897959 15.7344 1.22119V4.47119H10.2656V1.22119C10.2656 0.897959 10.1422 0.587965 9.92239 0.359405C9.70262 0.130845 9.40455 0.00244141 9.09375 0.00244141C8.78295 0.00244141 8.48488 0.130845 8.26511 0.359405C8.04534 0.587965 7.92188 0.897959 7.92188 1.22119V4.54229C7.69432 4.62687 7.49747 4.78254 7.35828 4.98799C7.2191 5.19344 7.14439 5.43862 7.14439 5.68994C7.14439 5.94126 7.2191 6.18644 7.35828 6.39189C7.49747 6.59734 7.69432 6.75302 7.92188 6.8376V9.75244C7.6793 9.94165 7.48242 10.187 7.34682 10.469C7.21122 10.7511 7.14062 11.0621 7.14062 11.3774V17.8774C7.14062 18.1928 7.21122 18.5038 7.34682 18.7858C7.48242 19.0679 7.6793 19.3132 7.92188 19.5024V24.7837C7.92188 25.1069 8.04534 25.4169 8.26511 25.6455C8.48488 25.874 8.78295 26.0024 9.09375 26.0024C9.40455 26.0024 9.70262 25.874 9.92239 25.6455C10.1422 25.4169 10.2656 25.1069 10.2656 24.7837ZM15.7344 6.90869V9.34619H10.2656V6.90869H15.7344ZM16.5156 11.7837V17.4712H14.1719V14.6274C14.1719 14.3042 14.0484 13.9942 13.8286 13.7657C13.6089 13.5371 13.3108 13.4087 13 13.4087C12.6892 13.4087 12.3911 13.5371 12.1714 13.7657C11.9516 13.9942 11.8281 14.3042 11.8281 14.6274V17.4712H9.48438V11.7837H16.5156Z" fill="#7A7A7A" fill-opacity="0.6"/>
</g>
<defs>
<clipPath id="clip0_2593_5062">
<rect width="26" height="25" fill="white" transform="matrix(0 1 -1 0 25.5 0.00244141)"/>
</clipPath>
</defs>
</svg>
