<svg width="24" height="23" viewBox="0 0 24 23" fill="none" xmlns="http://www.w3.org/2000/svg">
<path d="M18.4688 14.3774C18.4688 18.3471 15.9697 20.8461 12 20.8461C8.03025 20.8461 5.53125 18.3471 5.53125 14.3774C5.53125 10.1175 10.1685 4.36656 11.5908 2.7031C11.6414 2.644 11.7042 2.59655 11.7749 2.56402C11.8455 2.53149 11.9224 2.51465 12.0002 2.51465C12.078 2.51465 12.1549 2.53149 12.2256 2.56402C12.2963 2.59655 12.3591 2.644 12.4097 2.7031C13.8315 4.36656 18.4688 10.1175 18.4688 14.3774Z" stroke="#7A7A7A" stroke-opacity="0.6" stroke-width="2" stroke-miterlimit="10"/>
<path d="M15.9531 14.7368C15.9531 15.5946 15.6124 16.4173 15.0058 17.0239C14.3992 17.6304 13.5766 17.9712 12.7188 17.9712" stroke="#7A7A7A" stroke-opacity="0.6" stroke-width="2" stroke-linecap="round" stroke-linejoin="round"/>
</svg>
