<svg width="25" height="24" viewBox="0 0 25 24" fill="none" xmlns="http://www.w3.org/2000/svg">
<path d="M21.5 20.0024V6.00244C21.5 4.89944 20.603 4.00244 19.5 4.00244H17.5V2.00244H15.5V4.00244H9.5V2.00244H7.5V4.00244H5.5C4.397 4.00244 3.5 4.89944 3.5 6.00244V20.0024C3.5 21.1054 4.397 22.0024 5.5 22.0024H19.5C20.603 22.0024 21.5 21.1054 21.5 20.0024ZM9.5 18.0024H7.5V16.0024H9.5V18.0024ZM9.5 14.0024H7.5V12.0024H9.5V14.0024ZM13.5 18.0024H11.5V16.0024H13.5V18.0024ZM13.5 14.0024H11.5V12.0024H13.5V14.0024ZM17.5 18.0024H15.5V16.0024H17.5V18.0024ZM17.5 14.0024H15.5V12.0024H17.5V14.0024ZM19.5 9.00244H5.5V7.00244H19.5V9.00244Z" fill="#ABABAB"/>
</svg>
