<svg width="35" height="36" viewBox="0 0 35 36" fill="none" xmlns="http://www.w3.org/2000/svg">
<path d="M24.4995 5.31494C24.4995 4.96684 24.6378 4.63301 24.884 4.38686C25.1301 4.14072 25.4639 4.00244 25.812 4.00244H30.187C30.5351 4.00244 30.869 4.14072 31.1151 4.38686C31.3613 4.63301 31.4995 4.96684 31.4995 5.31494V9.68994C31.4995 10.038 31.3613 10.3719 31.1151 10.618C30.869 10.8642 30.5351 11.0024 30.187 11.0024C29.8389 11.0024 29.5051 10.8642 29.259 10.618C29.0128 10.3719 28.8745 10.038 28.8745 9.68994V8.48244L21.052 16.3049C20.8059 16.5507 20.4724 16.6888 20.1245 16.6888C19.7767 16.6888 19.4431 16.5507 19.197 16.3049L14.8745 11.9824L7.48954 19.3674C7.36938 19.4964 7.22448 19.5998 7.06348 19.6716C6.90248 19.7433 6.72868 19.7819 6.55245 19.785C6.37622 19.7881 6.20117 19.7557 6.03774 19.6897C5.87431 19.6236 5.72585 19.5254 5.60122 19.4008C5.47659 19.2761 5.37833 19.1277 5.31232 18.9642C5.24631 18.8008 5.21389 18.6258 5.217 18.4495C5.22011 18.2733 5.25868 18.0995 5.33042 17.9385C5.40216 17.7775 5.50558 17.6326 5.63454 17.5124L13.947 9.19994C14.1931 8.95415 14.5267 8.8161 14.8745 8.8161C15.2224 8.8161 15.5559 8.95415 15.802 9.19994L20.1245 13.5224L27.0195 6.62744H25.812C25.4639 6.62744 25.1301 6.48916 24.884 6.24302C24.6378 5.99688 24.4995 5.66304 24.4995 5.31494ZM6.56204 25.0024C6.91013 25.0024 7.24397 25.1407 7.49011 25.3869C7.73626 25.633 7.87454 25.9668 7.87454 26.3149V30.6899C7.87454 31.038 7.73626 31.3719 7.49011 31.618C7.24397 31.8642 6.91013 32.0024 6.56204 32.0024C6.21394 32.0024 5.8801 31.8642 5.63396 31.618C5.38782 31.3719 5.24954 31.038 5.24954 30.6899V26.3149C5.24954 25.9668 5.38782 25.633 5.63396 25.3869C5.8801 25.1407 6.21394 25.0024 6.56204 25.0024ZM14.8745 21.0649C14.8745 20.7168 14.7363 20.383 14.4901 20.1369C14.244 19.8907 13.9101 19.7524 13.562 19.7524C13.2139 19.7524 12.8801 19.8907 12.634 20.1369C12.3878 20.383 12.2495 20.7168 12.2495 21.0649V30.6899C12.2495 31.038 12.3878 31.3719 12.634 31.618C12.8801 31.8642 13.2139 32.0024 13.562 32.0024C13.9101 32.0024 14.244 31.8642 14.4901 31.618C14.7363 31.3719 14.8745 31.038 14.8745 30.6899V21.0649ZM20.562 23.2524C20.9101 23.2524 21.244 23.3907 21.4901 23.6369C21.7363 23.883 21.8745 24.2168 21.8745 24.5649V30.6899C21.8745 31.038 21.7363 31.3719 21.4901 31.618C21.244 31.8642 20.9101 32.0024 20.562 32.0024C20.2139 32.0024 19.8801 31.8642 19.634 31.618C19.3878 31.3719 19.2495 31.038 19.2495 30.6899V24.5649C19.2495 24.2168 19.3878 23.883 19.634 23.6369C19.8801 23.3907 20.2139 23.2524 20.562 23.2524ZM28.8745 17.5649C28.8745 17.2168 28.7363 16.883 28.4901 16.6369C28.244 16.3907 27.9101 16.2524 27.562 16.2524C27.2139 16.2524 26.8801 16.3907 26.634 16.6369C26.3878 16.883 26.2495 17.2168 26.2495 17.5649V30.6899C26.2495 31.038 26.3878 31.3719 26.634 31.618C26.8801 31.8642 27.2139 32.0024 27.562 32.0024C27.9101 32.0024 28.244 31.8642 28.4901 31.618C28.7363 31.3719 28.8745 31.038 28.8745 30.6899V17.5649Z" fill="black" fill-opacity="0.4"/>
</svg>
